<?xml version="1.0" encoding="UTF-8" standalone="no"?>
<svg
   xmlns:dc="http://purl.org/dc/elements/1.1/"
   xmlns:cc="http://creativecommons.org/ns#"
   xmlns:rdf="http://www.w3.org/1999/02/22-rdf-syntax-ns#"
   xmlns:svg="http://www.w3.org/2000/svg"
   xmlns="http://www.w3.org/2000/svg"
   xmlns:sodipodi="http://sodipodi.sourceforge.net/DTD/sodipodi-0.dtd"
   xmlns:inkscape="http://www.inkscape.org/namespaces/inkscape"
   width="217.99359"
   height="217.99359"
   viewBox="0 0 57.67747 57.677474"
   version="1.1"
   id="svg4043"
   inkscape:version="0.91 r13725"
   sodipodi:docname="dbd.svg"
   inkscape:export-filename="/home/user/builds/fsf/web/history-static/img/event/dbd.png"
   inkscape:export-xdpi="96"
   inkscape:export-ydpi="96">
  <defs
     id="defs4037" />
  <sodipodi:namedview
     id="base"
     pagecolor="#ffffff"
     bordercolor="#666666"
     borderopacity="1.0"
     inkscape:pageopacity="0.0"
     inkscape:pageshadow="2"
     inkscape:zoom="0.25"
     inkscape:cx="336.67656"
     inkscape:cy="756.83333"
     inkscape:document-units="px"
     inkscape:current-layer="layer1"
     inkscape:document-rotation="0"
     showgrid="false"
     units="px"
     inkscape:window-width="1280"
     inkscape:window-height="674"
     inkscape:window-x="0"
     inkscape:window-y="0"
     inkscape:window-maximized="1"
     inkscape:snap-global="true"
     inkscape:snap-page="true"
     inkscape:snap-object-midpoints="true"
     showguides="true"
     inkscape:guide-bbox="true"
     fit-margin-top="0"
     fit-margin-left="0"
     fit-margin-right="0"
     fit-margin-bottom="0" />
  <metadata
     id="metadata4040">
    <rdf:RDF>
      <cc:Work
         rdf:about="">
        <dc:format>image/svg+xml</dc:format>
        <dc:type
           rdf:resource="http://purl.org/dc/dcmitype/StillImage" />
        <dc:title></dc:title>
        <cc:license
           rdf:resource="http://creativecommons.org/licenses/by-sa/3.0/" />
      </cc:Work>
      <cc:License
         rdf:about="http://creativecommons.org/licenses/by-sa/3.0/">
        <cc:permits
           rdf:resource="http://creativecommons.org/ns#Reproduction" />
        <cc:permits
           rdf:resource="http://creativecommons.org/ns#Distribution" />
        <cc:requires
           rdf:resource="http://creativecommons.org/ns#Notice" />
        <cc:requires
           rdf:resource="http://creativecommons.org/ns#Attribution" />
        <cc:permits
           rdf:resource="http://creativecommons.org/ns#DerivativeWorks" />
        <cc:requires
           rdf:resource="http://creativecommons.org/ns#ShareAlike" />
      </cc:License>
    </rdf:RDF>
  </metadata>
  <g
     inkscape:label="Layer 1"
     inkscape:groupmode="layer"
     id="layer1"
     transform="translate(-92.532816,-2971.5365)">
    <circle
       r="28.838737"
       cy="3000.3752"
       cx="121.37152"
       id="circle48372"
       style="opacity:1;fill:#ffe240;fill-opacity:1;stroke:none;stroke-width:0.50453001;stroke-linecap:round;stroke-linejoin:round;stroke-miterlimit:4;stroke-dasharray:none;stroke-dashoffset:0;stroke-opacity:1" />
    <g
       transform="matrix(0.96592583,-0.25881905,0.25881905,0.96592583,-20.161692,2914.7633)"
       id="g48565">
      <g
         transform="matrix(0.51943773,0,0,0.51943773,60.469365,52.674057)"
         id="g48536">
        <path
           inkscape:connector-curvature="0"
           id="path14"
           style="fill:#231f20;fill-opacity:1;fill-rule:evenodd;stroke:none;stroke-width:0.352777"
           d="m 63.369629,146.0959 c 0,0 81.498381,0 81.498381,0 0,0 0,-41.6798 0,-41.6798 0,0 -81.498381,0 -81.498381,0 0,0 0,41.6798 0,41.6798 z" />
        <path
           inkscape:connector-curvature="0"
           id="path16"
           style="fill:#ffffff;fill-opacity:1;fill-rule:nonzero;stroke:none;stroke-width:0.352777"
           d="m 65.2305,143.8628 c 0,0 24.93319,0 24.93319,0 0,0 0,-24.933 0,-24.933 0,0 -24.93319,0 -24.93319,0 0,0 0,24.933 0,24.933 z" />
        <path
           inkscape:connector-curvature="0"
           id="path18"
           style="fill:#ffffff;fill-opacity:1;fill-rule:nonzero;stroke:none;stroke-width:0.352777"
           d="m 92.824337,143.8628 c 0,0 49.494133,0 49.494133,0 0,0 0,-24.933 0,-24.933 0,0 -49.494133,0 -49.494133,0 0,0 0,24.933 0,24.933 z" />
        <path
           inkscape:connector-curvature="0"
           id="path20"
           style="fill:#ffffff;fill-opacity:1;fill-rule:nonzero;stroke:none;stroke-width:0.352777"
           d="m 72.954231,106.6561 c 0,0 0,1.7599 0,1.7599 0,0 -5.035007,0 -5.035007,0 0,0 0,2.0531 0,2.0531 0,0 4.620906,0 4.620906,0 0,0 0,1.6246 0,1.6246 0,0 -4.620906,0 -4.620906,0 0,0 0,2.3464 0,2.3464 0,0 5.142322,0 5.142322,0 0,0 0,1.7589 0,1.7589 0,0 -7.240556,0 -7.240556,0 0,0 0,-9.5429 0,-9.5429 0,0 7.133241,0 7.133241,0 z" />
        <path
           inkscape:connector-curvature="0"
           id="path22"
           style="fill:#ffffff;fill-opacity:1;fill-rule:nonzero;stroke:none;stroke-width:0.352777"
           d="m 77.441984,106.6561 c 0,0 0,7.784 0,7.784 0,0 4.647949,0 4.647949,0 0,0 0,1.7589 0,1.7589 0,0 -6.746183,0 -6.746183,0 0,0 0,-9.5429 0,-9.5429 0,0 2.098234,0 2.098234,0 z" />
        <path
           inkscape:connector-curvature="0"
           id="path24"
           style="fill:#ffffff;fill-opacity:1;fill-rule:nonzero;stroke:none;stroke-width:0.352777"
           d="m 86.229561,106.6561 c 0,0 0,9.5429 0,9.5429 0,0 -2.098064,0 -2.098064,0 0,0 0,-9.5429 0,-9.5429 0,0 2.098064,0 2.098064,0 z" />
        <path
           inkscape:connector-curvature="0"
           id="path26"
           style="fill:#ffffff;fill-opacity:1;fill-rule:nonzero;stroke:none;stroke-width:0.352777"
           d="m 91.890371,106.6561 c 0,0 2.228977,6.5633 2.228977,6.5633 0,0 0.0267,0 0.0267,0 0,0 2.109433,-6.5633 2.109433,-6.5633 0,0 2.949691,0 2.949691,0 0,0 0,9.5429 0,9.5429 0,0 -1.963015,0 -1.963015,0 0,0 0,-6.7625 0,-6.7625 0,0 -0.0267,0 -0.0267,0 0,0 -2.335601,6.7625 -2.335601,6.7625 0,0 -1.615236,0 -1.615236,0 0,0 -2.335427,-6.6954 -2.335427,-6.6954 0,0 -0.0267,0 -0.0267,0 0,0 0,6.6954 0,6.6954 0,0 -1.962842,0 -1.962842,0 0,0 0,-9.5429 0,-9.5429 0,0 2.950725,0 2.950725,0 z" />
        <path
           inkscape:connector-curvature="0"
           id="path28"
           style="fill:#ffffff;fill-opacity:1;fill-rule:nonzero;stroke:none;stroke-width:0.352777"
           d="m 104.02038,106.6561 c 0,0 0,9.5429 0,9.5429 0,0 -2.09858,0 -2.09858,0 0,0 0,-9.5429 0,-9.5429 0,0 2.09858,0 2.09858,0 z" />
        <path
           inkscape:connector-curvature="0"
           id="path30"
           style="fill:#ffffff;fill-opacity:1;fill-rule:nonzero;stroke:none;stroke-width:0.352777"
           d="m 108.81543,106.6561 c 0,0 3.98357,6.4022 3.98357,6.4022 0,0 0.0226,0 0.0226,0 0,0 0,-6.4022 0,-6.4022 0,0 1.96267,0 1.96267,0 0,0 0,9.5429 0,9.5429 0,0 -2.0972,0 -2.0972,0 0,0 -3.96755,-6.3879 -3.96755,-6.3879 0,0 -0.0265,0 -0.0265,0 0,0 0,6.3879 0,6.3879 0,0 -1.96353,0 -1.96353,0 0,0 0,-9.5429 0,-9.5429 0,0 2.08601,0 2.08601,0 z" />
        <path
           inkscape:connector-curvature="0"
           id="path32"
           style="fill:#ffffff;fill-opacity:1;fill-rule:nonzero;stroke:none;stroke-width:0.352777"
           d="m 122.36603,112.5221 c 0,0 -1.20199,-3.5133 -1.20199,-3.5133 0,0 -0.0258,0 -0.0258,0 0,0 -1.24334,3.5133 -1.24334,3.5133 0,0 2.47117,0 2.47117,0 z m -0.12058,-5.866 c 0,0 3.56584,9.5429 3.56584,9.5429 0,0 -2.17626,0 -2.17626,0 0,0 -0.72106,-2.1203 -0.72106,-2.1203 0,0 -3.56636,0 -3.56636,0 0,0 -0.74776,2.1203 -0.74776,2.1203 0,0 -2.10978,0 -2.10978,0 0,0 3.60495,-9.5429 3.60495,-9.5429 0,0 2.15043,0 2.15043,0 z" />
        <path
           inkscape:connector-curvature="0"
           id="path34"
           style="fill:#ffffff;fill-opacity:1;fill-rule:nonzero;stroke:none;stroke-width:0.352777"
           d="m 125.52294,108.416 c 0,0 0,-1.7599 0,-1.7599 0,0 7.81469,0 7.81469,0 0,0 0,1.7599 0,1.7599 0,0 -2.85805,0 -2.85805,0 0,0 0,7.783 0,7.783 0,0 -2.0979,0 -2.0979,0 0,0 0,-7.783 0,-7.783 0,0 -2.85874,0 -2.85874,0 z" />
        <path
           inkscape:connector-curvature="0"
           id="path36"
           style="fill:#ffffff;fill-opacity:1;fill-rule:nonzero;stroke:none;stroke-width:0.352777"
           d="m 142.44456,106.6561 c 0,0 0,1.7599 0,1.7599 0,0 -5.03449,0 -5.03449,0 0,0 0,2.0531 0,2.0531 0,0 4.62142,0 4.62142,0 0,0 0,1.6246 0,1.6246 0,0 -4.62142,0 -4.62142,0 0,0 0,2.3464 0,2.3464 0,0 5.14163,0 5.14163,0 0,0 0,1.7589 0,1.7589 0,0 -7.24004,0 -7.24004,0 0,0 0,-9.5429 0,-9.5429 0,0 7.1329,0 7.1329,0 z" />
        <path
           inkscape:connector-curvature="0"
           id="path38"
           style="fill:#231f20;fill-opacity:1;fill-rule:nonzero;stroke:none;stroke-width:0.352777"
           d="m 100.19719,136.2316 c 0.49058,0 0.96669,-0.08 1.42799,-0.2393 0.46129,-0.1583 0.87281,-0.4215 1.23334,-0.7896 0.36053,-0.3683 0.6494,-0.8484 0.86593,-1.4408 0.21617,-0.5913 0.324,-1.3131 0.324,-2.1656 0,-0.7799 -0.0756,-1.4825 -0.22685,-2.1113 -0.15107,-0.6285 -0.40032,-1.1661 -0.74621,-1.6135 -0.3464,-0.4472 -0.80495,-0.791 -1.37408,-1.029 -0.5705,-0.2386 -1.27382,-0.3576 -2.109775,-0.3576 0,0 -2.423623,0 -2.423623,0 0,0 0,9.7467 0,9.7467 0,0 3.029278,0 3.029278,0 z m 0.23788,-12.6119 c 0.99684,0 1.92494,0.159 2.7845,0.4775 0.85972,0.3177 1.603,0.7945 2.23173,1.4301 0.62855,0.6363 1.11983,1.4307 1.47416,2.3842 0.35346,0.9534 0.53054,2.0741 0.53054,3.36 0,1.1276 -0.14486,2.1671 -0.43408,3.1219 -0.28836,0.9533 -0.7264,1.7772 -1.31103,2.4703 -0.58515,0.6937 -1.31396,1.2396 -2.18815,1.6365 -0.8742,0.3984 -1.90325,0.5958 -3.08767,0.5958 0,0 -6.673669,0 -6.673669,0 0,0 0,-15.4763 0,-15.4763 0,0 6.673669,0 6.673669,0 z" />
        <path
           inkscape:connector-curvature="0"
           id="path40"
           style="fill:#231f20;fill-opacity:1;fill-rule:nonzero;stroke:none;stroke-width:0.352777"
           d="m 116.38931,130.6135 c 0.77704,0 1.36098,-0.1723 1.74855,-0.5173 0.3893,-0.345 0.58378,-0.9044 0.58378,-1.6807 0,-0.7476 -0.19448,-1.2893 -0.58378,-1.627 -0.38757,-0.3372 -0.97151,-0.5066 -1.74855,-0.5066 0,0 -3.71416,0 -3.71416,0 0,0 0,4.3316 0,4.3316 0,0 3.71416,0 3.71416,0 z m 1.21388,-6.9714 c 0.69297,0 1.3174,0.1122 1.8724,0.3347 0.55587,0.224 1.0325,0.5299 1.42886,0.919 0.39739,0.3886 0.70056,0.8394 0.90985,1.3496 0.20998,0.5123 0.31367,1.0634 0.31367,1.6535 0,0.9078 -0.19189,1.6926 -0.57533,2.3561 -0.38361,0.6623 -1.0089,1.1662 -1.87602,1.5121 0,0 0,0.043 0,0.043 0.4184,0.1155 0.76567,0.2925 1.03869,0.5305 0.2744,0.2394 0.49834,0.5209 0.67197,0.8465 0.17363,0.3254 0.29972,0.683 0.3793,1.0729 0.0785,0.3905 0.13315,0.7812 0.16192,1.171 0.0145,0.2458 0.0286,0.5356 0.0425,0.8673 0.0155,0.3332 0.0407,0.6729 0.077,1.0201 0.0358,0.3464 0.0939,0.6754 0.17295,0.9862 0.0791,0.3107 0.19809,0.5753 0.35777,0.791 0,0 -3.40358,0 -3.40358,0 -0.1888,-0.4901 -0.30438,-1.0752 -0.34847,-1.7543 -0.0434,-0.679 -0.10784,-1.3299 -0.19517,-1.9516 -0.11558,-0.8077 -0.35984,-1.4006 -0.73449,-1.7765 -0.3738,-0.3751 -0.98478,-0.5636 -1.83383,-0.5636 0,0 -3.38807,0 -3.38807,0 0,0 0,6.046 0,6.046 0,0 -3.40617,0 -3.40617,0 0,0 0,-15.4539 0,-15.4539 0,0 8.3342,0 8.3342,0 z" />
        <path
           inkscape:connector-curvature="0"
           id="path42"
           style="fill:#231f20;fill-opacity:1;fill-rule:nonzero;stroke:none;stroke-width:0.352777"
           d="m 129.1489,123.6421 c 0,0 3.61615,10.6282 3.61615,10.6282 0,0 0.0434,0 0.0434,0 0,0 3.42012,-10.6282 3.42012,-10.6282 0,0 4.78523,0 4.78523,0 0,0 0,15.4539 0,15.4539 0,0 -3.18085,0 -3.18085,0 0,0 0,-10.9522 0,-10.9522 0,0 -0.0432,0 -0.0432,0 0,0 -3.79064,10.9522 -3.79064,10.9522 0,0 -2.62,0 -2.62,0 0,0 -3.79046,-10.8436 -3.79046,-10.8436 0,0 -0.0434,0 -0.0434,0 0,0 0,10.8436 0,10.8436 0,0 -3.18155,0 -3.18155,0 0,0 0,-15.4539 0,-15.4539 0,0 4.78524,0 4.78524,0 z" />
        <path
           inkscape:connector-curvature="0"
           id="path44"
           style="fill:#ffffff;fill-opacity:1;fill-rule:evenodd;stroke:none;stroke-width:0.352777"
           d="m 89.314645,142.6393 c 0,0 -22.74142,0 -22.74142,0 0,0 0,-23.463 0,-23.463 0,0 22.74142,0 22.74142,0 0,0 0,23.463 0,23.463 z" />
        <path
           inkscape:connector-curvature="0"
           id="path46"
           style="fill:none;fill-opacity:1;stroke:#bd0000;stroke-width:1.80486;stroke-linecap:butt;stroke-linejoin:miter;stroke-miterlimit:4;stroke-dasharray:none;stroke-opacity:1"
           d="m 70.680984,140.1314 c -2.532832,-0.012 -3.694349,-1.6697 -2.582443,-3.6842 0,0 7.30722,-13.239 7.30722,-13.239 1.110869,-2.0133 2.948312,-2.0188 4.081921,-0.012 0,0 7.550961,13.37 7.550961,13.37 1.132576,2.007 -0.01206,3.64 -2.544205,3.6288 0,0 -13.813454,-0.064 -13.813454,-0.064 z" />
        <path
           inkscape:connector-curvature="0"
           id="path48"
           style="fill:#bd0000;fill-opacity:1;fill-rule:nonzero;stroke:none;stroke-width:0.352777"
           d="m 77.985449,132.4783 c -0.395327,-0.2828 -0.490926,-0.8535 -0.208256,-1.2482 0.281118,-0.3948 0.851973,-0.4907 1.247123,-0.2086 0.395153,0.2813 0.490756,0.8534 0.208947,1.248 -0.282156,0.395 -0.852661,0.4901 -1.247814,0.2088 z m -1.984375,2.7802 c -0.395154,-0.2827 -0.490238,-0.8532 -0.208429,-1.248 0.28181,-0.3948 0.853179,-0.4906 1.247987,-0.2079 0.394635,0.2808 0.489546,0.8527 0.208083,1.2475 -0.281637,0.3946 -0.852488,0.4899 -1.247641,0.2084 z" />
        <path
           inkscape:connector-curvature="0"
           id="path50"
           style="fill:#bd0000;fill-opacity:1;fill-rule:nonzero;stroke:none;stroke-width:0.352777"
           d="m 79.162982,138.4268 c -0.136941,-1.1712 -0.08854,-2.3324 0.802361,-3.5812 0.895728,-1.2557 1.92822,-1.694 3.154677,-1.9642 0,0 0.306613,0.8476 0.306613,0.8476 -0.917085,0.2781 -1.737364,0.7456 -2.470651,1.7731 -0.752239,1.0543 -0.930003,1.9705 -0.892623,2.9402 0,0 -0.900377,-0.016 -0.900377,-0.016 z" />
        <path
           inkscape:connector-curvature="0"
           id="path52"
           style="fill:#bd0000;fill-opacity:1;fill-rule:nonzero;stroke:none;stroke-width:0.352777"
           d="m 72.606448,133.4925 c 0,0 0.871781,-1.3846 0.871781,-1.3846 0,0 2.230872,-0.2022 2.230872,-0.2022 0,0 -0.77463,-2.1092 -0.77463,-2.1092 0,0 0.877983,-1.3922 0.877983,-1.3922 0,0 1.299489,3.8451 1.299489,3.8451 0,0 -0.477489,0.7567 -0.477489,0.7567 0,0 -4.028006,0.4864 -4.028006,0.4864 z" />
      </g>
      <text
         id="text48540"
         y="131.69681"
         x="93.082153"
         style="font-style:normal;font-weight:normal;font-size:3.37532997px;line-height:1.25;font-family:sans-serif;fill:#231f20;fill-opacity:1;stroke:none;stroke-width:0.0843833"
         xml:space="preserve"><tspan
           style="font-style:normal;font-variant:normal;font-weight:bold;font-stretch:normal;font-family:sans-serif;-inkscape-font-specification:'sans-serif Bold';fill:#231f20;fill-opacity:1;stroke-width:0.0843833"
           y="131.69681"
           x="93.082153"
           id="tspan48538"
           sodipodi:role="line">DEFECTIVEBYDESIGN.ORG</tspan></text>
    </g>
  </g>
</svg>
