<?xml version="1.0" encoding="iso-8859-1"?>
<!-- Uploaded to: SVG Repo, www.svgrepo.com, Generator: SVG Repo Mixer Tools -->
<svg fill="#000000" height="800px" width="800px" version="1.1" id="Layer_1" xmlns="http://www.w3.org/2000/svg" xmlns:xlink="http://www.w3.org/1999/xlink" 
	 viewBox="0 0 512 512" xml:space="preserve">
<g>
	<g>
		<g>
			<path d="M494.934,256H17.067c-4.713,0-8.533,3.82-8.533,8.533c0,133.155,105.169,241.728,236.971,247.23
				c1.081,0.255,2.195,0.294,3.28,0.125c2.397,0.069,4.801,0.112,7.215,0.112s4.818-0.044,7.215-0.112
				c1.086,0.17,2.199,0.13,3.28-0.125c131.802-5.502,236.971-114.075,236.971-247.23C503.467,259.82,499.646,256,494.934,256z
				 M247.467,367.065c-27.636,0.736-54.685,5.035-80.621,12.659c-13.226-33.112-20.684-69.117-21.667-106.658h102.288V367.065z
				 M247.467,384.138v108.23c-31.409-26.739-56.364-59.722-73.773-96.86C197.46,388.704,222.2,384.848,247.467,384.138z
				 M222.188,492.464c-48.629-7.152-92.316-29.492-126.086-62.052c19.255-12.236,39.768-22.191,61.196-29.696
				C173.1,435.069,194.981,466.146,222.188,492.464z M264.533,492.367v-108.23c25.267,0.711,50.006,4.566,73.773,11.369
				C320.898,432.645,295.942,465.628,264.533,492.367z M354.702,400.716c21.427,7.504,41.94,17.459,61.197,29.695
				c-33.77,32.561-77.458,54.901-126.087,62.053C317.019,466.146,338.9,435.069,354.702,400.716z M264.533,367.065v-93.998h102.288
				c-0.982,37.541-8.441,73.545-21.667,106.657C319.219,372.099,292.17,367.8,264.533,367.065z M128.11,273.067
				c0.978,39.332,8.713,77.111,22.47,111.922c-23.347,8.273-45.659,19.301-66.531,32.887
				c-34.586-38.756-56.271-89.271-58.293-144.809H128.11z M427.953,417.875c-20.876-13.585-43.187-24.613-66.532-32.886
				c13.758-34.812,21.492-72.591,22.47-111.922h102.354C484.223,328.604,462.538,379.119,427.953,417.875z"/>
			<path d="M256,102.4c28.282,0,51.2-22.918,51.2-51.2C307.2,22.918,284.282,0,256,0s-51.2,22.918-51.2,51.2
				C204.8,79.482,227.718,102.4,256,102.4z M256,17.067c18.856,0,34.133,15.277,34.133,34.133c0,18.856-15.277,34.133-34.133,34.133
				c-18.856,0-34.133-15.277-34.133-34.133C221.867,32.344,237.144,17.067,256,17.067z"/>
			<path d="M315.733,179.2c0-32.984-26.75-59.733-59.733-59.733s-59.733,26.75-59.733,59.733v59.733h119.467V179.2z
				 M298.667,221.867h-85.333V179.2c0-23.558,19.109-42.667,42.667-42.667s42.667,19.109,42.667,42.667V221.867z"/>
			<path d="M443.733,102.4c28.282,0,51.2-22.918,51.2-51.2c0-28.282-22.918-51.2-51.2-51.2s-51.2,22.918-51.2,51.2
				C392.533,79.482,415.452,102.4,443.733,102.4z M443.733,17.067c18.856,0,34.133,15.277,34.133,34.133
				c0,18.856-15.277,34.133-34.133,34.133S409.6,70.056,409.6,51.2C409.6,32.344,424.877,17.067,443.733,17.067z"/>
			<path d="M443.733,119.467c-32.984,0-59.733,26.75-59.733,59.733v59.733h119.467V179.2
				C503.467,146.216,476.717,119.467,443.733,119.467z M486.4,221.867h-85.333V179.2c0-23.558,19.109-42.667,42.667-42.667
				S486.4,155.642,486.4,179.2V221.867z"/>
			<path d="M76.8,102.4c28.282,0,51.2-22.918,51.2-51.2C128,22.918,105.082,0,76.8,0C48.518,0,25.6,22.918,25.6,51.2
				C25.6,79.482,48.518,102.4,76.8,102.4z M76.8,17.067c18.856,0,34.133,15.277,34.133,34.133c0,18.856-15.277,34.133-34.133,34.133
				c-18.856,0-34.133-15.277-34.133-34.133C42.667,32.344,57.944,17.067,76.8,17.067z"/>
			<path d="M136.533,179.2c0-32.984-26.75-59.733-59.733-59.733s-59.733,26.75-59.733,59.733v59.733h119.467V179.2z
				 M119.467,221.867H34.133V179.2c0-23.558,19.109-42.667,42.667-42.667s42.667,19.109,42.667,42.667V221.867z"/>
		</g>
	</g>
</g>
</svg>