<?xml version="1.0" encoding="UTF-8" standalone="no"?>
<svg
   xmlns:dc="http://purl.org/dc/elements/1.1/"
   xmlns:cc="http://creativecommons.org/ns#"
   xmlns:rdf="http://www.w3.org/1999/02/22-rdf-syntax-ns#"
   xmlns:svg="http://www.w3.org/2000/svg"
   xmlns="http://www.w3.org/2000/svg"
   xmlns:sodipodi="http://sodipodi.sourceforge.net/DTD/sodipodi-0.dtd"
   xmlns:inkscape="http://www.inkscape.org/namespaces/inkscape"
   width="217.99359"
   height="217.99359"
   viewBox="0 0 57.67747 57.677474"
   version="1.1"
   id="svg4043"
   inkscape:version="0.92.3 (2405546, 2018-03-11)"
   sodipodi:docname="00440fsff.svg"
   inkscape:export-filename="/home/user/builds/fsf/web/history-static/img/event/00440fsff.png"
   inkscape:export-xdpi="96"
   inkscape:export-ydpi="96">
  <defs
     id="defs4037" />
  <sodipodi:namedview
     id="base"
     pagecolor="#ffffff"
     bordercolor="#666666"
     borderopacity="1.0"
     inkscape:pageopacity="0.0"
     inkscape:pageshadow="2"
     inkscape:zoom="1.63"
     inkscape:cx="20.497208"
     inkscape:cy="126.62062"
     inkscape:document-units="px"
     inkscape:current-layer="layer1"
     inkscape:document-rotation="0"
     showgrid="false"
     units="px"
     inkscape:window-width="1280"
     inkscape:window-height="669"
     inkscape:window-x="0"
     inkscape:window-y="0"
     inkscape:window-maximized="1"
     inkscape:snap-global="true"
     inkscape:snap-page="true"
     inkscape:snap-object-midpoints="true"
     showguides="true"
     inkscape:guide-bbox="true"
     fit-margin-top="0"
     fit-margin-left="0"
     fit-margin-right="0"
     fit-margin-bottom="0">
    <sodipodi:guide
       position="28.838705,28.838728"
       orientation="1,0"
       id="guide885"
       inkscape:locked="false" />
    <sodipodi:guide
       position="28.838704,28.838729"
       orientation="0,1"
       id="guide887"
       inkscape:locked="false" />
  </sodipodi:namedview>
  <metadata
     id="metadata4040">
    <rdf:RDF>
      <cc:Work
         rdf:about="">
        <dc:format>image/svg+xml</dc:format>
        <dc:type
           rdf:resource="http://purl.org/dc/dcmitype/StillImage" />
        <dc:title />
        <cc:license
           rdf:resource="http://creativecommons.org/licenses/by-sa/4.0/" />
      </cc:Work>
      <cc:License
         rdf:about="http://creativecommons.org/licenses/by-sa/4.0/">
        <cc:permits
           rdf:resource="http://creativecommons.org/ns#Reproduction" />
        <cc:permits
           rdf:resource="http://creativecommons.org/ns#Distribution" />
        <cc:requires
           rdf:resource="http://creativecommons.org/ns#Notice" />
        <cc:requires
           rdf:resource="http://creativecommons.org/ns#Attribution" />
        <cc:permits
           rdf:resource="http://creativecommons.org/ns#DerivativeWorks" />
        <cc:requires
           rdf:resource="http://creativecommons.org/ns#ShareAlike" />
      </cc:License>
    </rdf:RDF>
  </metadata>
  <g
     inkscape:label="Layer 1"
     inkscape:groupmode="layer"
     id="layer1"
     transform="translate(-92.532816,-2971.5365)"
     style="display:inline">
    <circle
       r="28.838737"
       cy="3000.3752"
       cx="121.37152"
       id="circle48372"
       style="opacity:1;fill:#cdebfb;fill-opacity:1;stroke:none;stroke-width:0.50453001;stroke-linecap:round;stroke-linejoin:round;stroke-miterlimit:4;stroke-dasharray:none;stroke-dashoffset:0;stroke-opacity:1" />
    <path
       inkscape:connector-curvature="0"
       id="path12"
       d="m 101.6145,3019.9318 c 0.002,-0.1744 0.003,-0.176 0.0649,-0.065 0.0348,0.063 0.11455,0.1426 0.17728,0.1772 0.11113,0.062 0.10947,0.063 -0.0649,0.065 -0.17559,0 -0.17893,0 -0.17728,-0.1773 z m 39.27061,0.1123 c 0.0628,-0.034 0.1425,-0.1145 0.17728,-0.1773 0.0615,-0.111 0.0632,-0.1094 0.0649,0.065 0.002,0.1756 -0.002,0.1789 -0.17728,0.1772 -0.17439,0 -0.17605,0 -0.0649,-0.065 z m -38.79505,-19.6914 v -19.2809 h 1.33538 1.33539 l 0.0219,0.1075 c 0.0121,0.059 0.0351,0.2762 0.0512,0.4826 0.041,0.5271 0.18697,1.3028 0.35598,1.8922 0.84248,2.9378 2.86839,5.408 5.56804,6.7888 0.60713,0.3106 0.85331,0.4136 1.56916,0.6568 l 0.52497,0.1784 v 12.0401 12.04 l -0.29825,0.061 c -0.72244,0.1474 -1.49001,0.7447 -1.81663,1.4136 -0.41387,0.8477 -0.36229,1.9099 0.12804,2.6364 0.0822,0.1217 0.14944,0.2311 0.14944,0.2429 0,0.012 -2.00802,0.021 -4.46227,0.021 h -4.46228 z m 9.15041,-7.123 c -0.0631,-0.8214 -0.53137,-1.4717 -1.26853,-1.7609 -0.37924,-0.1488 -1.01935,-0.1488 -1.39859,0 -0.73715,0.2892 -1.20552,0.9395 -1.26852,1.7609 l -0.0265,0.3461 h 1.99435 1.99436 z m 9.41455,26.3824 c 0,-0.012 0.0673,-0.1213 0.14945,-0.2429 0.49031,-0.7266 0.54191,-1.7888 0.12803,-2.6365 -0.32524,-0.6661 -1.10925,-1.2775 -1.80885,-1.4105 l -0.28236,-0.053 0.0121,-12.0678 0.0121,-12.0678 0.45339,-0.1563 c 1.93609,-0.6672 3.61165,-1.807 4.87886,-3.319 1.43112,-1.7076 2.38376,-3.9539 2.54274,-5.9959 0.0161,-0.2064 0.0391,-0.4236 0.0511,-0.4826 l 0.0219,-0.1076 h 6.91919 6.9192 v 19.281 19.2808 h -9.99836 c -5.49909,0 -9.99835,-0.01 -9.99835,-0.021 z m 3.61432,-26.3824 c -0.0631,-0.8214 -0.53136,-1.4717 -1.26853,-1.7609 -0.37922,-0.1488 -1.01934,-0.1488 -1.39857,0 -0.73717,0.2892 -1.20553,0.9395 -1.26854,1.7609 l -0.0265,0.3461 h 1.99436 1.99435 z m -9.48447,-4.6894 c -2.31848,-0.3184 -4.43255,-1.6566 -5.69179,-3.6027 -0.67482,-1.043 -1.13801,-2.3115 -1.26782,-3.472 l -0.0387,-0.346 h 8.09597 8.09597 l -0.0387,0.346 c -0.25953,2.3204 -1.64098,4.5432 -3.61886,5.823 -1.64614,1.0651 -3.62943,1.5135 -5.53609,1.2517 z m -13.17061,-7.7428 c -0.002,-0.137 0.0136,-0.1551 0.12699,-0.1551 0.1108,0 0.11817,0.01 0.0537,0.059 -0.0411,0.034 -0.0983,0.1026 -0.12698,0.1551 -0.0468,0.085 -0.0523,0.078 -0.0537,-0.059 z m 39.46699,0.083 c 0,-0.026 -0.043,-0.091 -0.0955,-0.1432 l -0.0955,-0.096 h 0.11932 c 0.10076,0 0.11932,0.022 0.11932,0.1431 0,0.079 -0.0108,0.1432 -0.0238,0.1432 -0.0131,0 -0.0238,-0.021 -0.0238,-0.048 z"
       style="fill:#01559e;fill-opacity:1;stroke-width:0.04772484" />
  </g>
  <g
     inkscape:groupmode="layer"
     id="layer2"
     inkscape:label="logo"
     style="display:inline" />
</svg>
