<?xml version="1.0" encoding="UTF-8" standalone="no"?>
<svg
   xmlns:dc="http://purl.org/dc/elements/1.1/"
   xmlns:cc="http://creativecommons.org/ns#"
   xmlns:rdf="http://www.w3.org/1999/02/22-rdf-syntax-ns#"
   xmlns:svg="http://www.w3.org/2000/svg"
   xmlns="http://www.w3.org/2000/svg"
   xmlns:sodipodi="http://sodipodi.sourceforge.net/DTD/sodipodi-0.dtd"
   xmlns:inkscape="http://www.inkscape.org/namespaces/inkscape"
   width="217.99359"
   height="217.99359"
   viewBox="0 0 57.67747 57.677474"
   version="1.1"
   id="svg4043"
   inkscape:version="0.92.3 (2405546, 2018-03-11)"
   sodipodi:docname="00440fsfi.svg"
   inkscape:export-filename="/home/user/builds/fsf/web/history-static/img/event/00440fsfi.png"
   inkscape:export-xdpi="96"
   inkscape:export-ydpi="96">
  <defs
     id="defs4037">
    <inkscape:perspective
       id="perspective2824"
       inkscape:persp3d-origin="800 : 400 : 1"
       inkscape:vp_z="1600 : 600 : 1"
       inkscape:vp_y="0 : 1000 : 0"
       inkscape:vp_x="0 : 600 : 1"
       sodipodi:type="inkscape:persp3d" />
    <inkscape:perspective
       sodipodi:type="inkscape:persp3d"
       inkscape:vp_x="0 : 0.5 : 1"
       inkscape:vp_y="0 : 1000 : 0"
       inkscape:vp_z="1 : 0.5 : 1"
       inkscape:persp3d-origin="0.5 : 0.33333333 : 1"
       id="perspective3194" />
    <clipPath
       clipPathUnits="userSpaceOnUse"
       id="clipPath2862">
      <path
         inkscape:connector-curvature="0"
         d="m -317.3545,693.8125 c 0,-31.4365 -25.4844,-56.9209 -56.9209,-56.9209 -31.4365,0 -56.9209,25.4844 -56.9209,56.9209 0,31.4365 25.4844,56.9209 56.9209,56.9209 31.4365,0 56.9209,-25.4844 56.9209,-56.9209 z"
         id="path2864" />
    </clipPath>
    <clipPath
       clipPathUnits="userSpaceOnUse"
       id="clipPath2862-8">
      <path
         inkscape:connector-curvature="0"
         d="m -317.3545,693.8125 c 0,-31.4365 -25.4844,-56.9209 -56.9209,-56.9209 -31.4365,0 -56.9209,25.4844 -56.9209,56.9209 0,31.4365 25.4844,56.9209 56.9209,56.9209 31.4365,0 56.9209,-25.4844 56.9209,-56.9209 z"
         id="path2864-6" />
    </clipPath>
  </defs>
  <sodipodi:namedview
     id="base"
     pagecolor="#ffffff"
     bordercolor="#666666"
     borderopacity="1.0"
     inkscape:pageopacity="0.0"
     inkscape:pageshadow="2"
     inkscape:zoom="1.754102"
     inkscape:cx="130.87657"
     inkscape:cy="102.76578"
     inkscape:document-units="px"
     inkscape:current-layer="layer1"
     inkscape:document-rotation="0"
     showgrid="false"
     units="px"
     inkscape:window-width="1280"
     inkscape:window-height="669"
     inkscape:window-x="0"
     inkscape:window-y="0"
     inkscape:window-maximized="1"
     inkscape:snap-global="true"
     inkscape:snap-page="true"
     inkscape:snap-object-midpoints="true"
     showguides="true"
     inkscape:guide-bbox="true"
     fit-margin-top="0"
     fit-margin-left="0"
     fit-margin-right="0"
     fit-margin-bottom="0">
    <sodipodi:guide
       position="28.838705,28.838728"
       orientation="1,0"
       id="guide885"
       inkscape:locked="false" />
    <sodipodi:guide
       position="28.838704,28.838729"
       orientation="0,1"
       id="guide887"
       inkscape:locked="false" />
  </sodipodi:namedview>
  <metadata
     id="metadata4040">
    <rdf:RDF>
      <cc:Work
         rdf:about="">
        <dc:format>image/svg+xml</dc:format>
        <dc:type
           rdf:resource="http://purl.org/dc/dcmitype/StillImage" />
        <dc:title />
        <cc:license
           rdf:resource="http://creativecommons.org/licenses/by-sa/4.0/" />
      </cc:Work>
      <cc:License
         rdf:about="http://creativecommons.org/licenses/by-sa/4.0/">
        <cc:permits
           rdf:resource="http://creativecommons.org/ns#Reproduction" />
        <cc:permits
           rdf:resource="http://creativecommons.org/ns#Distribution" />
        <cc:requires
           rdf:resource="http://creativecommons.org/ns#Notice" />
        <cc:requires
           rdf:resource="http://creativecommons.org/ns#Attribution" />
        <cc:permits
           rdf:resource="http://creativecommons.org/ns#DerivativeWorks" />
        <cc:requires
           rdf:resource="http://creativecommons.org/ns#ShareAlike" />
      </cc:License>
    </rdf:RDF>
  </metadata>
  <g
     inkscape:label="Layer 1"
     inkscape:groupmode="layer"
     id="layer1"
     transform="translate(-92.532816,-2971.5365)"
     style="display:inline">
    <circle
       r="28.838737"
       cy="3000.3752"
       cx="121.37152"
       id="circle48372"
       style="opacity:1;fill:#cdebfb;fill-opacity:1;stroke:none;stroke-width:0.50453001;stroke-linecap:round;stroke-linejoin:round;stroke-miterlimit:4;stroke-dasharray:none;stroke-dashoffset:0;stroke-opacity:1" />
    <g
       style="display:inline"
       transform="matrix(0.15554719,0,0,0.15554719,80.611958,2878.2755)"
       inkscape:label="Layer 1"
       id="layer1-6">
      <g
         id="g4592">
        <g
           id="g4941">
          <path
             inkscape:connector-curvature="0"
             d="m 306.04536,784.96919 c 0,24.01735 -19.47276,43.48876 -43.4901,43.48876 -24.01734,0 -43.48893,-19.47141 -43.48893,-43.48876 0,-24.01734 19.47159,-43.48728 43.48893,-43.48728 24.01734,0 43.4901,19.46994 43.4901,43.48728 z"
             style="display:inline;fill:none;stroke:#ff9900;stroke-width:13.17831993;stroke-linecap:butt;stroke-linejoin:miter;stroke-miterlimit:4;stroke-dasharray:none;stroke-opacity:1"
             id="path2832"
             inkscape:export-filename="/media/Sanchay_/Documents/Design/fsf-india-sticker-01-a.png"
             inkscape:export-xdpi="600"
             inkscape:export-ydpi="600" />
          <path
             inkscape:connector-curvature="0"
             d="m 273.82887,784.96919 c 0,6.2275 -5.04478,11.27509 -11.27361,11.27509 -6.22884,0 -11.27362,-5.04759 -11.27362,-11.27509 0,-6.22602 5.04478,-11.27361 11.27362,-11.27361 6.22883,0 11.27361,5.04759 11.27361,11.27361 z"
             style="display:inline;fill:none;stroke:#000000;stroke-width:2.92851567;stroke-linecap:butt;stroke-linejoin:miter;stroke-miterlimit:4;stroke-dasharray:none;stroke-opacity:1"
             id="path2834"
             inkscape:export-filename="/media/Sanchay_/Documents/Design/fsf-india-sticker-01-a.png"
             inkscape:export-xdpi="600"
             inkscape:export-ydpi="600" />
          <path
             inkscape:connector-curvature="0"
             d="m 262.55526,619.06909 c 92.19108,0 166.92539,74.73424 166.92539,166.92539 0,92.18967 -74.73431,166.92539 -166.92539,166.92539"
             style="display:inline;fill:none;stroke:#33cc33;stroke-width:13.17831993;stroke-linecap:butt;stroke-linejoin:miter;stroke-miterlimit:4;stroke-dasharray:none;stroke-opacity:1"
             id="path2836"
             inkscape:export-filename="/media/Sanchay_/Documents/Design/fsf-india-sticker-01-a.png"
             inkscape:export-xdpi="600"
             inkscape:export-ydpi="600" />
          <path
             inkscape:connector-curvature="0"
             d="m 219.32685,620.15732 -5.17808,1.24258 2.75843,-0.063 c 1.16812,-0.0928 1.65309,-0.62201 2.41965,-1.1796 z"
             style="display:inline;fill:#ff9900;fill-opacity:1;fill-rule:nonzero;stroke:none"
             id="path2838"
             inkscape:export-filename="/media/Sanchay_/Documents/Design/fsf-india-sticker-01-a.png"
             inkscape:export-xdpi="600"
             inkscape:export-ydpi="600" />
          <path
             inkscape:connector-curvature="0"
             d="m 209.4273,622.81114 -0.89097,0.30602 -0.70331,0.42611 z"
             style="display:inline;fill:#ff9900;fill-opacity:1;fill-rule:nonzero;stroke:none"
             id="path2840"
             inkscape:export-filename="/media/Sanchay_/Documents/Design/fsf-india-sticker-01-a.png"
             inkscape:export-xdpi="600"
             inkscape:export-ydpi="600" />
          <path
             inkscape:connector-curvature="0"
             d="m 200.89056,626.41322 4.40566,-1.68889 c -1.30401,0.33474 -2.77272,0.86801 -4.40566,1.68889 z"
             style="display:inline;fill:#ff9900;fill-opacity:1;fill-rule:nonzero;stroke:none"
             id="path2842"
             inkscape:export-filename="/media/Sanchay_/Documents/Design/fsf-india-sticker-01-a.png"
             inkscape:export-xdpi="600"
             inkscape:export-ydpi="600" />
          <path
             inkscape:connector-curvature="0"
             d="m 207.94313,624.28829 c -0.62061,-0.0501 -0.95681,-0.21882 -0.14057,-0.7292 l 0.0305,-0.0141 -2.5368,1.18106 2.64691,-0.43604 z"
             style="display:inline;fill:#ff9900;fill-opacity:1;fill-rule:nonzero;stroke:none"
             id="path2844"
             inkscape:export-filename="/media/Sanchay_/Documents/Design/fsf-india-sticker-01-a.png"
             inkscape:export-xdpi="600"
             inkscape:export-ydpi="600" />
          <path
             inkscape:connector-curvature="0"
             d="m 207.94313,624.28829 c 0.60468,0.0471 1.48698,-0.0234 1.81872,0.009 z"
             style="display:inline;fill:#ff9900;fill-opacity:1;fill-rule:nonzero;stroke:none"
             id="path2846"
             inkscape:export-filename="/media/Sanchay_/Documents/Design/fsf-india-sticker-01-a.png"
             inkscape:export-xdpi="600"
             inkscape:export-ydpi="600" />
          <path
             inkscape:connector-curvature="0"
             d="m 207.84731,630.93337 c -0.75533,0.48613 -1.1611,-1.237 -2.70267,-0.25595 -3.79372,1.85171 -6.81243,3.82202 -10.24559,5.63681 -1.42279,1.12513 -4.79738,0.58628 -6.22884,1.71142 -3.7738,1.96768 -11.38817,9.91099 -6.17752,6.45913 7.97212,-4.79309 13.29733,-7.91605 21.00612,-11.27361 6.14169,-3.0931 12.11,-6.17155 18.90533,-8.30497 1.9047,-0.57487 3.74498,-0.90814 5.58362,-1.25984 -2.41942,0.34322 -4.91592,0.70488 -7.67739,1.1468 -3.71219,0.37895 -7.35995,3.65479 -12.46306,6.14021 z"
             style="display:inline;fill:#ff9900;fill-opacity:1;fill-rule:nonzero;stroke:none"
             id="path2848"
             inkscape:export-filename="/media/Sanchay_/Documents/Design/fsf-india-sticker-01-a.png"
             inkscape:export-xdpi="600"
             inkscape:export-ydpi="600" />
          <path
             inkscape:connector-curvature="0"
             d="m 258.01512,615.67025 c -0.91815,0.24307 -2.7282,0.7292 -2.7282,0.7292 -4.13272,-0.93391 -8.49973,-0.62056 -12.66946,0.64631 l 1.98201,0.58191 c 2.42224,-0.38452 2.67667,-0.80799 0.45053,-1.05251 5.10475,0.74237 9.78054,0.71925 14.5826,0.28318 -0.30457,-0.46182 -0.246,-1.01385 -1.61748,-1.18809 z"
             style="display:inline;fill:#ff9900;fill-opacity:1;fill-rule:nonzero;stroke:none"
             id="path2850"
             inkscape:export-filename="/media/Sanchay_/Documents/Design/fsf-india-sticker-01-a.png"
             inkscape:export-xdpi="600"
             inkscape:export-ydpi="600" />
          <path
             inkscape:connector-curvature="0"
             d="m 262.46225,616.57106 -2.82965,0.2873 0.11245,0.14877 2.80974,-0.39741 -0.0937,-0.0387 z"
             style="display:inline;fill:#ff9900;fill-opacity:1;fill-rule:nonzero;stroke:none"
             id="path2852"
             inkscape:export-filename="/media/Sanchay_/Documents/Design/fsf-india-sticker-01-a.png"
             inkscape:export-xdpi="600"
             inkscape:export-ydpi="600" />
          <path
             inkscape:connector-curvature="0"
             d="m 183.81263,635.94671 c -10.65722,5.89714 -20.16482,12.31879 -28.91617,19.32555 -0.41749,0.84079 -0.60913,1.55153 -1.5917,2.16624 l -2.36343,1.30288 -3.67915,3.21875 -1.19132,1.2698 -0.0234,0.0293 c -0.54072,0.762 -0.15697,0.78074 0.43904,0.58598 l 1.70276,-0.68761 c -0.33151,0.10425 -1.11354,0.49609 -1.70276,0.68761 -0.71385,0.34908 -1.483,0.80944 -2.2908,1.41155 -0.94088,1.17257 -1.92041,2.36068 -3.09298,3.49051 1.06832,-1.47422 2.09916,-2.62688 3.09298,-3.49051 l 1.87167,-2.02623 0.48754,-0.66068 c -2.93414,2.35364 -5.34513,5.19343 -7.96181,7.87038 l -1.46262,1.82184 c -1.60881,2.17354 -3.31906,4.23667 -4.98504,5.0347 l -1.24263,1.57145 0.35189,-0.20875 -0.57047,0.48906 -5.26641,6.66355 -2.45386,5.11787 c 0,0 -1.14681,0.76641 -1.72314,1.14974 -0.0305,0.89497 -0.35751,1.99317 -0.89378,3.15724 1.22974,-1.00947 2.43957,-1.88479 3.40036,-2.77565 1.62286,-1.16526 0.93244,-4.45134 3.60793,-5.30794 -2.67549,0.8566 -1.98507,4.14268 -3.60793,5.30794 -0.96079,0.89086 -2.17062,1.76618 -3.40036,2.77565 -1.12244,2.45234 -3.17451,5.22506 -5.36785,7.19243 1.14821,-3.32297 3.30453,-5.49096 5.36785,-7.19243 0.53627,-1.1641 0.86356,-2.26229 0.89378,-3.15724 0.57633,-0.38333 1.72455,-1.15119 1.72455,-1.15119 l 2.45245,-5.11642 c -3.65947,4.20975 -6.2935,9.21458 -9.51908,13.95906 -19.238708,31.65611 -26.508455,67.14707 -22.68475,105.58676 2.090491,20.8613 7.53566,40.72891 16.11246,58.87636 17.60272,36.32177 46.63345,61.29001 82.18727,81.86255 13.79448,8.35799 43.19724,14.62119 58.5258,14.81857 20.57411,-1.89182 9.81966,-9.97394 9.13181,-10.4343 -11.32375,-7.19419 -21.04736,-3.21169 -42.72095,-13.26997 15.00009,6.20611 -13.23244,1.51287 -24.53628,-10.06531 -16.15978,-14.6783 -43.02833,-29.26086 -57.01726,-52.32995 -3.63089,-5.40515 -7.20415,-11.34507 -10.97209,-18.14888 -16.48872,-36.28899 -23.75542,-75.63653 -11.76561,-116.77163 3.16467,-10.74737 5.49109,-20.50664 9.10886,-29.50831 2.97865,-6.37303 7.74159,-12.33022 10.89618,-17.0176 5.19051,-7.30138 9.53197,-13.68877 14.19229,-19.57158 -5.5541,6.24156 -8.95727,11.26514 -14.12669,18.90943 -3.61613,4.9978 0.71784,-4.70437 2.83434,-8.37497 0.78062,-1.65899 3.86236,-2.72849 4.81448,-4.19832 2.57967,-2.83567 4.35693,-5.96012 6.78947,-9.38207 0.91955,-1.57292 1.98905,-0.21999 2.49228,-0.95208 3.85815,-4.03109 5.59112,-8.6599 8.60398,-10.7491 2.19639,-1.68858 4.4886,-2.7897 6.54066,-4.07094 1.28527,-0.84077 2.54524,-1.68156 3.78365,-2.69541 l 2.20927,-2.20634 c -0.95962,0.0471 -1.57742,-0.31188 -2.18795,-0.68204 1.26394,-0.83521 3.17006,-1.81189 4.56731,-2.45527 -1.39725,0.64338 -3.30337,1.62006 -4.56731,2.45527 0.61053,0.37016 1.22833,0.7292 2.18795,0.68204 5.69936,-4.80335 12.43588,-10.586 19.57701,-14.50522 l -0.17571,-0.0916 c -4.28266,2.08072 -8.36525,4.22263 -13.09539,5.9771 2.03778,-0.78368 2.04762,-0.21882 0.0234,1.13539 l -2.06448,0.2303 c 3.42753,-2.54518 6.71473,-5.5065 10.97607,-6.08135 0,0 1.46121,-1.14126 2.19334,-1.71466 1.32838,-0.37017 1.51135,0.1558 1.97359,0.45333 l 2.47916,-1.34829 c -2.15328,0.07 -8.36196,1.81013 -8.36923,1.81451 z"
             style="display:inline;fill:#ff9900;fill-opacity:1;fill-rule:nonzero;stroke:none"
             id="path2854"
             inkscape:export-filename="/media/Sanchay_/Documents/Design/fsf-india-sticker-01-a.png"
             inkscape:export-xdpi="600"
             inkscape:export-ydpi="600" />
          <path
             inkscape:connector-curvature="0"
             d="m 144.08181,665.29336 1.62591,-1.66866 c -2.46956,1.94746 -4.40285,4.4326 -6.63625,6.61755 1.73602,-0.64045 3.35748,-2.77534 5.01034,-4.94889 z"
             style="display:inline;fill:#ff9900;fill-opacity:1;fill-rule:nonzero;stroke:none"
             id="path2856"
             inkscape:export-filename="/media/Sanchay_/Documents/Design/fsf-india-sticker-01-a.png"
             inkscape:export-xdpi="600"
             inkscape:export-ydpi="600" />
          <g
             style="display:inline"
             id="g2858"
             transform="matrix(2.9285156,0,0,-2.9285156,1358.6265,2816.81)"
             inkscape:export-filename="/media/Sanchay_/Documents/Design/fsf-india-sticker-01-a.png"
             inkscape:export-xdpi="600"
             inkscape:export-ydpi="600">
            <g
               id="g2860"
               clip-path="url(#clipPath2862-8)">
              <path
                 inkscape:connector-curvature="0"
                 d="m -409.582,753.6367 0.2641,-0.5054 0.005,0.3335 c -0.0142,0.1348 -0.1396,0.1377 -0.2695,0.1719 z"
                 style="fill:#000000;fill-opacity:1;fill-rule:nonzero;stroke:none"
                 id="path2866" />
              <path
                 inkscape:connector-curvature="0"
                 d="m -409.0757,752.6606 0.0459,-0.0898 0.0801,-0.0527 z"
                 style="fill:#000000;fill-opacity:1;fill-rule:nonzero;stroke:none"
                 id="path2868" />
              <path
                 inkscape:connector-curvature="0"
                 d="m -408.4741,751.8633 -0.27,0.4287 c 0.0405,-0.1426 0.123,-0.2881 0.27,-0.4287 z"
                 style="fill:#000000;fill-opacity:1;fill-rule:nonzero;stroke:none"
                 id="path2870" />
              <path
                 inkscape:connector-curvature="0"
                 d="m -408.7676,752.606 c -0.0307,-0.0889 -0.0815,-0.1504 -0.1787,-0.0904 l -0.003,0.003 0.2056,-0.2261 -0.0235,0.314 z"
                 style="fill:#000000;fill-opacity:1;fill-rule:nonzero;stroke:none"
                 id="path2872" />
              <path
                 inkscape:connector-curvature="0"
                 d="m -408.7676,752.606 0.0576,0.2475 z"
                 style="fill:#000000;fill-opacity:1;fill-rule:nonzero;stroke:none"
                 id="path2874" />
              <path
                 inkscape:connector-curvature="0"
                 d="m -407.1738,753.2368 c 0.0957,-0.0581 -0.3316,-0.2778 -0.1402,-0.396 0.3501,-0.3349 0.7349,-0.5713 0.9527,-0.9468 0.1928,-0.1181 -0.1123,-0.6547 0.0791,-0.7714 0.3501,-0.335 1.5034,-1.0435 1.1274,-0.4507 -0.5889,0.8769 -1.0439,1.4067 -1.5932,2.1806 l -1.6622,1.6866 -0.2763,0.5722 0.2373,-0.8496 c 0.0874,-0.4155 0.8647,-0.5312 1.2754,-1.0249 z"
                 style="fill:#000000;fill-opacity:1;fill-rule:nonzero;stroke:none"
                 id="path2876" />
              <path
                 inkscape:connector-curvature="0"
                 d="m -411.4292,757.417 c 0.0962,-0.0596 0.2886,-0.1768 0.2886,-0.1768 -0.0782,-0.5561 0.2715,-0.8916 0.6206,-1.2265 l 0.104,0.2983 c -0.1572,0.2173 -0.2881,0.1768 -0.2608,-0.0806 -0.018,0.6143 -0.2348,1.0796 -0.5385,1.5079 -0.0967,-0.0933 -0.2305,-0.1617 -0.2139,-0.3223 z"
                 style="fill:#000000;fill-opacity:1;fill-rule:nonzero;stroke:none"
                 id="path2878" />
              <path
                 inkscape:connector-curvature="0"
                 d="m -411.4033,757.9863 0.188,-0.247 0.0302,0.0312 -0.2133,0.2305 -0.005,-0.0147 z"
                 style="fill:#000000;fill-opacity:1;fill-rule:nonzero;stroke:none"
                 id="path2880" />
              <path
                 inkscape:connector-curvature="0"
                 d="m -407.0405,750.2607 c 0.6753,-1.1328 1.2768,-2.2207 1.8427,-3.2934 0.1275,-0.0342 0.2544,-0.0376 0.2681,-0.1734 l -0.005,-0.3325 0.2422,-0.4707 0.127,-0.144 0.004,-0.002 c 0.0972,-0.0586 0.147,0.003 0.1772,0.0908 l 0.0577,0.2481 -0.0577,-0.2481 0.0249,-0.3144 0.2691,-0.4282 c -0.1465,0.1411 -0.2305,0.2861 -0.2691,0.4282 l -0.206,0.2256 -0.0816,0.0542 0.5459,-1.0825 0.1597,-0.1988 c 0.2017,-0.2197 0.4028,-0.4399 0.291,-0.7129 l 0.0952,-0.1943 0.0171,0.0571 5e-4,-0.0913 0.4038,-0.8232 0.5381,-0.3882 c 0,0 -0.0688,-0.1992 -0.104,-0.2983 0.145,-0.0113 0.2734,-0.0747 0.377,-0.1744 l 0.1196,0.5933 c 0.105,0.2988 -0.6455,0.1558 -0.3755,0.5928 -0.27,-0.437 0.4805,-0.294 0.3755,-0.5928 l -0.1196,-0.5933 c 0.2192,-0.2075 0.3315,-0.5742 0.2793,-0.9506 -0.3624,0.2211 -0.3501,0.5922 -0.2793,0.9506 -0.1036,0.0997 -0.232,0.1631 -0.377,0.1744 0.0352,0.0991 0.104,0.2983 0.104,0.2983 l -0.5381,0.3882 0.8013,-1.6348 c 1.7183,-3.5884 3.5937,-6.7285 5.456,-10.4053 0.9942,-1.999 1.8868,-3.957 2.6939,-5.9174 1.6089,-3.9058 4.0767,-6.8936 5.1445,-11.1646 0.4434,-1.6177 2.1499,-4.1138 2.9761,-5.4448 1.7388,-1.4185 2.9795,0.5527 3.0303,0.6973 0.8755,1.9951 -0.4727,2.3803 -0.8931,5.1718 0.3872,-1.8427 -1.6387,0.5791 -1.4424,2.6441 0.3648,3.0332 -2.6484,5.3208 -3.7514,8.1684 -0.2749,0.7124 -0.7471,1.3638 -1.167,2.1641 -1.7984,4.3603 -4.6411,7.7339 -6.9761,12.061 -0.6553,1.1255 -1.6133,1.8946 -2.3726,2.7222 -0.4716,0.6518 -0.6967,1.5122 -1.0224,2.0752 -0.5152,0.8843 -1.1021,1.5644 -1.7071,2.1904 0.5484,-0.7739 1.0039,-1.3056 1.5923,-2.1802 0.3765,-0.5927 -0.7768,0.1148 -1.1264,0.4493 -0.1924,0.1186 0.1128,0.6552 -0.0796,0.7729 -0.2178,0.375 -0.6021,0.6108 -0.9522,0.9453 -0.1919,0.1177 0.2359,0.3379 0.1402,0.397 -0.4107,0.4941 -1.188,0.6079 -1.2759,1.0239 l -0.2378,0.8501 -0.2349,0.4654 -0.2763,0.2377 c -0.0816,-0.1528 -0.2207,-0.271 -0.3619,-0.3891 l -0.1474,0.5742 0.1474,-0.5742 c 0.1412,0.1181 0.2803,0.2363 0.3619,0.3891 -0.6607,0.5801 -1.3609,1.2862 -1.9869,1.9566 l -0.0307,-0.0327 c 0.3032,-0.4273 0.5205,-0.8916 0.5381,-1.5059 -0.0259,0.2564 0.1045,0.2974 0.2631,0.0796 l -0.1044,-0.2978 c -0.3511,0.3359 -0.7007,0.6704 -0.6206,1.2255 0,0 -0.1934,0.1187 -0.2901,0.1773 -0.0161,0.1611 0.1182,0.23 0.2139,0.3213 l -0.1875,0.2485 c -0.0972,-0.3086 -0.0205,-1.0557 -0.0205,-1.0557 z"
                 style="fill:#000000;fill-opacity:1;fill-rule:nonzero;stroke:none"
                 id="path2882" />
              <path
                 inkscape:connector-curvature="0"
                 d="m -404.3667,745.6035 -0.1592,0.1997 0.4507,-0.9116 c 0.1133,0.271 -0.0879,0.4907 -0.2915,0.7119 z"
                 style="fill:#000000;fill-opacity:1;fill-rule:nonzero;stroke:none"
                 id="path2884" />
              <path
                 inkscape:connector-curvature="0"
                 d="m -434.7637,727.9683 0.4815,-0.3057 -0.1621,0.2915 c -0.0801,0.1094 -0.19,0.0493 -0.3194,0.0142 z"
                 style="fill:#000000;fill-opacity:1;fill-rule:nonzero;stroke:none"
                 id="path2886" />
              <path
                 inkscape:connector-curvature="0"
                 d="m -433.8374,727.376 0.085,-0.0547 0.0957,-0.005 -0.1807,0.0601 z"
                 style="fill:#000000;fill-opacity:1;fill-rule:nonzero;stroke:none"
                 id="path2888" />
              <path
                 inkscape:connector-curvature="0"
                 d="m -432.9175,726.9863 -0.4482,0.2364 c 0.1064,-0.1031 0.2505,-0.188 0.4482,-0.2364 z"
                 style="fill:#000000;fill-opacity:1;fill-rule:nonzero;stroke:none"
                 id="path2890" />
              <path
                 inkscape:connector-curvature="0"
                 d="m -433.543,727.4829 c 0.0176,-0.0923 0.004,-0.1709 -0.1098,-0.168 l -0.004,0.001 0.291,-0.0932 -0.1773,0.2602 z"
                 style="fill:#000000;fill-opacity:1;fill-rule:nonzero;stroke:none"
                 id="path2892" />
              <path
                 inkscape:connector-curvature="0"
                 d="m -433.543,727.4829 -0.0742,0.2427 z"
                 style="fill:#000000;fill-opacity:1;fill-rule:nonzero;stroke:none"
                 id="path2894" />
              <path
                 inkscape:connector-curvature="0"
                 d="m -432.478,728.8262 c 0.1118,-0.002 -0.1485,-0.4068 0.0766,-0.4131 0.4702,-0.1152 0.9219,-0.1275 1.2984,-0.3433 0.226,-0.006 0.23,-0.6235 0.4541,-0.6289 0.4707,-0.1152 1.8237,-0.1518 1.2011,0.1734 -0.9477,0.4653 -1.6069,0.6962 -2.4697,1.0918 l -2.2827,0.6293 -0.5254,0.358 0.6304,-0.6177 c 0.2832,-0.3159 1.0146,-0.0274 1.6172,-0.2495 z"
                 style="fill:#000000;fill-opacity:1;fill-rule:nonzero;stroke:none"
                 id="path2896" />
              <path
                 inkscape:connector-curvature="0"
                 d="m -438.2539,730.3184 c 0.1133,-0.004 0.3384,-0.009 0.3384,-0.009 0.2104,-0.5205 0.6811,-0.6363 1.1509,-0.752 l -0.0591,0.3106 c -0.2447,0.1093 -0.3379,0.009 -0.1856,-0.2002 -0.3227,0.5229 -0.7431,0.8174 -1.2202,1.0366 -0.0371,-0.1289 -0.1186,-0.2554 -0.0244,-0.3862 z"
                 style="fill:#000000;fill-opacity:1;fill-rule:nonzero;stroke:none"
                 id="path2898" />
              <path
                 inkscape:connector-curvature="0"
                 d="m -438.5161,730.8242 0.2866,-0.1196 0.0107,0.0425 -0.2998,0.0923 0.002,-0.0152 z"
                 style="fill:#000000;fill-opacity:1;fill-rule:nonzero;stroke:none"
                 id="path2900" />
              <path
                 inkscape:connector-curvature="0"
                 d="m -430.875,726.3149 c 1.1514,-0.643 2.2163,-1.2841 3.2427,-1.9306 0.1274,0.0342 0.2392,0.0952 0.3188,-0.0156 l 0.1616,-0.2911 0.4454,-0.2861 0.1816,-0.0615 0.004,5e-4 c 0.1133,-0.003 0.126,0.0757 0.1084,0.167 l -0.0742,0.2436 0.0742,-0.2436 0.1787,-0.2598 0.4468,-0.2363 c -0.1973,0.0488 -0.3423,0.1328 -0.4468,0.2363 l -0.2915,0.0923 -0.0977,0.006 1.0142,-0.6645 0.2378,-0.0923 c 0.2842,-0.0899 0.5684,-0.1802 0.6084,-0.4722 l 0.1797,-0.1206 -0.0142,0.0581 0.0464,-0.0786 0.7612,-0.5112 0.6602,-0.0669 c 0,0 0.04,-0.207 0.0591,-0.3106 0.1313,0.0625 0.2739,0.0718 0.4135,0.0376 l -0.1928,0.5738 c -0.0586,0.311 -0.6372,-0.1885 -0.6216,0.3257 -0.0156,-0.5142 0.563,-0.0147 0.6216,-0.3257 l 0.1928,-0.5738 c 0.2935,-0.0703 0.5743,-0.3315 0.7173,-0.6836 -0.4243,0.0103 -0.5991,0.3379 -0.7173,0.6836 -0.1396,0.0342 -0.2822,0.0249 -0.4135,-0.0376 -0.0191,0.1036 -0.0591,0.3106 -0.0591,0.3106 l -0.6602,0.0669 1.5113,-1.0152 c 3.2822,-2.2485 6.4765,-4.0302 9.9277,-6.2832 1.8604,-1.2343 3.6128,-2.4834 5.292,-3.7773 3.3462,-2.5781 6.977,-3.9321 10.0371,-7.0967 1.1929,-1.1797 3.9185,-2.4873 5.2998,-3.2275 2.2153,-0.3589 2.3042,1.9687 2.2759,2.1191 -0.2393,2.166 -1.5996,1.8252 -3.3594,4.0327 1.2568,-1.4023 -1.709,-0.3183 -2.5713,1.5684 -1.2007,2.8091 -4.9541,3.2837 -7.333,5.1982 -0.5942,0.4795 -1.3286,0.8077 -2.0928,1.2906 -3.7373,2.8769 -7.8862,4.3769 -12.0717,6.957 -1.1304,0.647 -2.3448,0.834 -3.4161,1.1709 -0.7343,0.3291 -1.3593,0.9614 -1.9228,1.2861 -0.8882,0.5088 -1.7368,0.8037 -2.5737,1.0435 0.8618,-0.396 1.5224,-0.6284 2.4692,-1.0918 0.6221,-0.3252 -0.7305,-0.2891 -1.2002,-0.1743 -0.2261,0.007 -0.23,0.624 -0.4556,0.6299 -0.3754,0.2158 -0.8266,0.228 -1.2968,0.3427 -0.2251,0.006 0.0351,0.4102 -0.0772,0.4136 -0.603,0.2227 -1.333,-0.0674 -1.6172,0.249 l -0.6308,0.6172 -0.4356,0.2852 -0.3589,0.0678 c 0.006,-0.1728 -0.0556,-0.3452 -0.1186,-0.5175 l -0.4151,0.4233 0.4151,-0.4233 c 0.063,0.1723 0.1245,0.3447 0.1186,0.5175 -0.8623,0.1719 -1.8212,0.4336 -2.6987,0.7012 l -0.0102,-0.0439 c 0.476,-0.2183 0.8964,-0.5118 1.2187,-1.0347 -0.1504,0.209 -0.0581,0.3096 0.188,0.2002 l 0.0586,-0.3101 c -0.4717,0.1158 -0.9419,0.2305 -1.1504,0.751 0,0 -0.2266,0.006 -0.3394,0.009 -0.0947,0.1313 -0.0127,0.2583 0.0245,0.3848 l -0.2867,0.122 c 0.0699,-0.3159 0.5098,-0.9253 0.5098,-0.9253 z"
                 style="fill:#000000;fill-opacity:1;fill-rule:nonzero;stroke:none"
                 id="path2902" />
              <path
                 inkscape:connector-curvature="0"
                 d="m -426.2305,723.6191 -0.2378,0.0933 0.8462,-0.564 c -0.0376,0.2911 -0.3217,0.3809 -0.6084,0.4707 z"
                 style="fill:#000000;fill-opacity:1;fill-rule:nonzero;stroke:none"
                 id="path2904" />
              <path
                 inkscape:connector-curvature="0"
                 d="m -443.7373,693.1484 0.5698,-0.0239 -0.2861,0.1714 c -0.1235,0.0547 -0.189,-0.0522 -0.2837,-0.1475 z"
                 style="fill:#000000;fill-opacity:1;fill-rule:nonzero;stroke:none"
                 id="path2906" />
              <path
                 inkscape:connector-curvature="0"
                 d="m -442.6392,693.0986 0.1011,-0.005 0.086,0.0429 -0.1871,-0.0381 z"
                 style="fill:#000000;fill-opacity:1;fill-rule:nonzero;stroke:none"
                 id="path2908" />
              <path
                 inkscape:connector-curvature="0"
                 d="m -441.6475,693.2212 -0.5063,-0.0195 c 0.144,-0.0362 0.311,-0.0376 0.5063,0.0195 z"
                 style="fill:#000000;fill-opacity:1;fill-rule:nonzero;stroke:none"
                 id="path2910" />
              <path
                 inkscape:connector-curvature="0"
                 d="m -442.4375,693.3384 c 0.0615,-0.0713 0.0894,-0.146 -0.0112,-0.2002 l -0.003,-10e-4 0.2983,0.065 -0.2837,0.1367 z"
                 style="fill:#000000;fill-opacity:1;fill-rule:nonzero;stroke:none"
                 id="path2912" />
              <path
                 inkscape:connector-curvature="0"
                 d="m -442.4375,693.3384 -0.1855,0.1733 z"
                 style="fill:#000000;fill-opacity:1;fill-rule:nonzero;stroke:none"
                 id="path2914" />
              <path
                 inkscape:connector-curvature="0"
                 d="m -442.187,695.0342 c 0.0981,0.0537 0.0752,-0.4263 0.2729,-0.3194 0.4654,0.1353 0.8623,0.3506 1.2964,0.3516 0.1988,0.1079 0.5108,-0.4248 0.7075,-0.3174 0.4654,0.1358 1.6553,0.7803 0.9537,0.751 -1.0533,-0.0713 -1.7398,-0.2007 -2.6846,-0.2896 l -2.2915,-0.5961 c -0.2202,-0.0225 -0.4268,0.0146 -0.6343,0.0468 l 0.855,-0.2192 c 0.4033,-0.1323 0.8921,0.4834 1.5249,0.5923 z"
                 style="fill:#000000;fill-opacity:1;fill-rule:nonzero;stroke:none"
                 id="path2916" />
              <path
                 inkscape:connector-curvature="0"
                 d="m -447.9346,693.4385 c 0.0996,0.0537 0.2974,0.1616 0.2974,0.1616 0.4424,-0.3457 0.9077,-0.2105 1.3726,-0.0757 l -0.2066,0.2393 c -0.2666,-0.0274 -0.2974,-0.1612 -0.0605,-0.2661 -0.5411,0.2915 -1.0528,0.3364 -1.5752,0.2876 0.0322,-0.1304 0.0249,-0.2803 0.1723,-0.3467 z"
                 style="fill:#000000;fill-opacity:1;fill-rule:nonzero;stroke:none"
                 id="path2918" />
              <path
                 inkscape:connector-curvature="0"
                 d="m -448.4146,693.7456 0.3077,0.0396 -0.0118,0.0419 -0.3061,-0.0698 z"
                 style="fill:#000000;fill-opacity:1;fill-rule:nonzero;stroke:none"
                 id="path2920" />
              <path
                 inkscape:connector-curvature="0"
                 d="m -439.543,693.6611 c 1.3189,0.0186 2.5616,-0.004 3.774,-0.0507 0.0927,0.0932 0.1591,0.2016 0.2836,0.1455 l 0.2857,-0.1709 0.5288,-0.0254 0.188,0.0376 0.003,0.002 c 0.0996,0.0547 0.0713,0.1289 0.0103,0.1992 l -0.1861,0.1739 0.1861,-0.1739 0.2846,-0.1357 0.5054,0.0185 c -0.1958,-0.0561 -0.3628,-0.0561 -0.5054,-0.0185 l -0.2983,-0.0659 -0.0879,-0.0435 1.2109,-0.0683 0.2515,0.039 c 0.291,0.0645 0.5825,0.1284 0.7632,-0.1045 l 0.2158,-0.0146 -0.041,0.0429 0.0796,-0.0449 0.9145,-0.062 0.6055,0.272 c 0,0 0.1377,-0.1592 0.2061,-0.2393 0.0825,0.1201 0.2016,0.1992 0.3393,0.2393 l -0.4536,0.4004 c -0.2061,0.2402 -0.458,-0.4815 -0.7017,-0.0288 0.2437,-0.4527 0.4956,0.269 0.7017,0.0288 l 0.4536,-0.4004 c 0.2896,0.0859 0.6636,0 0.9634,-0.2334 -0.3726,-0.2031 -0.6885,-0.007 -0.9634,0.2334 -0.1377,-0.0401 -0.2568,-0.1192 -0.3393,-0.2393 -0.0684,0.0801 -0.2061,0.2393 -0.2061,0.2393 l -0.6055,-0.272 1.8164,-0.1235 c 3.9663,-0.3062 7.6241,-0.252 11.7393,-0.4776 2.228,-0.1386 4.3701,-0.3442 6.4717,-0.6255 4.187,-0.5595 8.0083,0.0835 12.2407,-1.1274 1.6226,-0.4248 4.6372,-0.1948 6.2031,-0.145 2.0982,0.7969 1.0117,2.8569 0.9116,2.9731 -1.29,1.7559 -2.2978,0.7808 -4.9257,1.8125 1.7895,-0.5859 -1.3208,-1.1299 -3.0108,0.0728 -2.4448,1.8325 -5.9321,0.3667 -8.9497,0.8354 -0.7544,0.1182 -1.5547,0.0352 -2.4575,0.0713 -4.6753,0.6231 -9.0186,-0.1523 -13.9331,-0.0107 -1.3023,-0.005 -2.4473,-0.4502 -3.544,-0.6939 -0.8003,-0.0825 -1.6577,0.1529 -2.3081,0.1524 -1.0234,-0.004 -1.9062,-0.1724 -2.7505,-0.3833 0.9444,0.0879 1.6324,0.2168 2.6841,0.289 0.7017,0.0293 -0.4878,-0.6157 -0.9521,-0.7509 -0.1992,-0.1075 -0.5117,0.4253 -0.7095,0.3173 -0.4331,-9e-4 -0.8301,-0.2158 -1.2944,-0.3515 -0.1978,-0.1074 -0.1748,0.373 -0.274,0.3198 -0.6333,-0.1089 -1.1206,-0.7251 -1.5249,-0.5933 l -0.8549,0.2193 -0.5201,0.0293 -0.3442,-0.1206 c 0.0913,-0.147 0.1245,-0.3267 0.1563,-0.5078 l -0.5713,0.1591 0.5713,-0.1591 c -0.0318,0.1811 -0.065,0.3608 -0.1563,0.5078 -0.833,-0.2823 -1.7944,-0.5352 -2.6875,-0.7422 l 0.0127,-0.043 c 0.5215,0.0488 1.0322,0.005 1.5728,-0.2871 -0.2344,0.106 -0.2051,0.2393 0.0629,0.2676 l 0.2056,-0.2393 c -0.4663,-0.1357 -0.9311,-0.2715 -1.3716,0.0752 0,0 -0.1992,-0.1079 -0.2988,-0.1621 -0.1475,0.0664 -0.1401,0.2173 -0.1709,0.3457 l -0.3096,-0.0381 c 0.2188,-0.2382 0.9043,-0.5459 0.9043,-0.5459 z"
                 style="fill:#000000;fill-opacity:1;fill-rule:nonzero;stroke:none"
                 id="path2922" />
              <path
                 inkscape:connector-curvature="0"
                 d="m -434.1724,693.6484 -0.2524,-0.038 1.0142,-0.0655 c -0.1783,0.2334 -0.4688,0.169 -0.7618,0.1035 z"
                 style="fill:#000000;fill-opacity:1;fill-rule:nonzero;stroke:none"
                 id="path2924" />
              <path
                 inkscape:connector-curvature="0"
                 d="m -434.0991,658.5059 0.5053,0.2646 -0.3334,0.005 c -0.1348,-0.0147 -0.1377,-0.1397 -0.1719,-0.2695 z"
                 style="fill:#000000;fill-opacity:1;fill-rule:nonzero;stroke:none"
                 id="path2926" />
              <path
                 inkscape:connector-curvature="0"
                 d="m -433.123,659.0122 0.0893,0.0459 0.0532,0.0801 z"
                 style="fill:#000000;fill-opacity:1;fill-rule:nonzero;stroke:none"
                 id="path2928" />
              <path
                 inkscape:connector-curvature="0"
                 d="m -432.3257,659.6138 -0.4287,-0.27 c 0.1426,0.0405 0.2881,0.123 0.4287,0.27 z"
                 style="fill:#000000;fill-opacity:1;fill-rule:nonzero;stroke:none"
                 id="path2930" />
              <path
                 inkscape:connector-curvature="0"
                 d="m -433.0684,659.3203 c 0.0889,-0.0307 0.1504,-0.0815 0.0904,-0.1787 l -0.002,-0.003 0.2261,0.2056 -0.314,-0.0235 z"
                 style="fill:#000000;fill-opacity:1;fill-rule:nonzero;stroke:none"
                 id="path2932" />
              <path
                 inkscape:connector-curvature="0"
                 d="m -433.0684,659.3203 -0.2475,0.0576 z"
                 style="fill:#000000;fill-opacity:1;fill-rule:nonzero;stroke:none"
                 id="path2934" />
              <path
                 inkscape:connector-curvature="0"
                 d="m -433.6992,660.9141 c 0.0576,0.0957 0.2778,-0.3316 0.3955,-0.1397 0.3354,0.3496 0.5718,0.7344 0.9473,0.9522 0.1181,0.1928 0.6547,-0.1123 0.7714,0.0791 0.335,0.3501 1.0435,1.5034 0.4502,1.1274 -0.8764,-0.5889 -1.4062,-1.0439 -2.1801,-1.5933 l -1.6866,-1.6621 -0.5722,-0.2763 0.8496,0.2373 c 0.4155,0.0874 0.5312,0.8647 1.0249,1.2754 z"
                 style="fill:#000000;fill-opacity:1;fill-rule:nonzero;stroke:none"
                 id="path2936" />
              <path
                 inkscape:connector-curvature="0"
                 d="m -437.8789,656.6587 c 0.0591,0.0962 0.1763,0.2886 0.1763,0.2886 0.5561,-0.0782 0.8916,0.2715 1.2265,0.6206 l -0.2983,0.104 c -0.2173,-0.1573 -0.1768,-0.2881 0.0806,-0.2608 -0.6143,-0.018 -1.0796,-0.2348 -1.5079,-0.5385 0.0933,-0.0967 0.1617,-0.2305 0.3228,-0.2139 z"
                 style="fill:#000000;fill-opacity:1;fill-rule:nonzero;stroke:none"
                 id="path2938" />
              <path
                 inkscape:connector-curvature="0"
                 d="m -438.4487,656.6846 0.247,0.188 -0.0312,0.0302 -0.23,-0.2133 0.0142,-0.005 z"
                 style="fill:#000000;fill-opacity:1;fill-rule:nonzero;stroke:none"
                 id="path2940" />
              <path
                 inkscape:connector-curvature="0"
                 d="m -430.7231,661.0474 c 1.1328,0.6753 2.2207,1.2768 3.2934,1.8427 0.0342,0.1275 0.0371,0.2544 0.1734,0.2681 l 0.3325,-0.005 0.4707,0.2422 0.144,0.1265 0.002,0.004 c 0.0586,0.0971 -0.003,0.147 -0.0908,0.1772 l -0.2481,0.0576 0.2481,-0.0576 0.3144,0.0249 0.4282,0.2691 c -0.1416,-0.1465 -0.2861,-0.2305 -0.4282,-0.2691 l -0.2256,-0.2065 -0.0542,-0.0811 1.0825,0.5459 0.1988,0.1597 c 0.2197,0.2017 0.4399,0.4028 0.7129,0.291 l 0.1943,0.0952 -0.0571,0.0171 0.0913,5e-4 0.8227,0.4038 0.3887,0.5381 c 0,0 0.1987,-0.0688 0.2979,-0.104 0.0117,0.1455 0.0751,0.2734 0.1743,0.3769 l -0.5928,0.1197 c -0.2988,0.105 -0.1558,-0.6455 -0.5933,-0.3755 0.4375,-0.27 0.2945,0.4805 0.5933,0.3755 l 0.5928,-0.1197 c 0.208,0.2193 0.5747,0.3316 0.9511,0.2793 -0.2212,-0.3623 -0.5927,-0.3496 -0.9511,-0.2793 -0.0992,-0.1035 -0.1626,-0.2314 -0.1743,-0.3769 -0.0992,0.0352 -0.2979,0.104 -0.2979,0.104 l -0.3887,-0.5381 1.6353,0.8013 c 3.5879,1.7178 6.7285,3.5937 10.4053,5.456 1.999,0.9942 3.9565,1.8868 5.9169,2.6944 3.9058,1.6084 6.8936,4.0761 11.1646,5.144 1.6177,0.4434 4.1138,2.1499 5.4448,2.9761 1.4185,1.7388 -0.5527,2.9795 -0.6972,3.0303 -1.9952,0.8755 -2.3804,-0.4727 -5.1719,-0.8931 1.8428,0.3872 -0.5791,-1.6392 -2.6441,-1.4424 -3.0332,0.3648 -5.3208,-2.6484 -8.1684,-3.7514 -0.7124,-0.275 -1.3638,-0.7471 -2.1636,-1.167 -4.3608,-1.7984 -7.7339,-4.6412 -12.0615,-6.9761 -1.125,-0.6553 -1.8941,-1.6133 -2.7217,-2.3726 -0.6519,-0.4717 -1.5122,-0.6968 -2.0752,-1.0224 -0.8843,-0.5152 -1.5644,-1.1021 -2.1904,-1.7071 0.7739,0.5484 1.3052,1.0039 2.1802,1.5923 0.5927,0.3765 -0.1148,-0.7768 -0.4493,-1.1264 -0.1186,-0.1924 -0.6557,0.1127 -0.7729,-0.0796 -0.375,-0.2178 -0.6113,-0.6021 -0.9453,-0.9517 -0.1177,-0.1924 -0.3379,0.2354 -0.397,0.1397 -0.4941,-0.4107 -0.6084,-1.188 -1.0244,-1.2764 l -0.8496,-0.2373 -0.4654,-0.2349 -0.2377,-0.2764 c 0.1523,-0.0815 0.271,-0.2207 0.3891,-0.3618 l -0.5742,-0.1474 0.5742,0.1474 c -0.1181,0.1411 -0.2368,0.2803 -0.3891,0.3618 -0.5801,-0.6606 -1.2867,-1.3608 -1.9566,-1.9868 l 0.0327,-0.0307 c 0.4273,0.3032 0.8916,0.5205 1.5054,0.5376 -0.2559,-0.0254 -0.2969,0.1049 -0.0791,0.2636 l 0.2978,-0.1045 c -0.3359,-0.3505 -0.6704,-0.7006 -1.2255,-0.6206 0,0 -0.1187,-0.1933 -0.1773,-0.29 -0.1611,-0.0161 -0.23,0.1182 -0.3213,0.2139 l -0.249,-0.1875 c 0.3086,-0.0972 1.0562,-0.0205 1.0562,-0.0205 z"
                 style="fill:#000000;fill-opacity:1;fill-rule:nonzero;stroke:none"
                 id="path2942" />
              <path
                 inkscape:connector-curvature="0"
                 d="m -426.0659,663.7217 -0.1997,-0.1597 0.9116,0.4507 c -0.271,0.1133 -0.4907,-0.0879 -0.7119,-0.291 z"
                 style="fill:#000000;fill-opacity:1;fill-rule:nonzero;stroke:none"
                 id="path2944" />
              <path
                 inkscape:connector-curvature="0"
                 d="m -408.4307,633.3242 0.3057,0.4815 -0.2915,-0.1621 c -0.1094,-0.0801 -0.0493,-0.19 -0.0142,-0.3194 z"
                 style="fill:#000000;fill-opacity:1;fill-rule:nonzero;stroke:none"
                 id="path2946" />
              <path
                 inkscape:connector-curvature="0"
                 d="m -407.8384,634.2505 0.0542,0.0849 0.006,0.0958 -0.0601,-0.1807 z"
                 style="fill:#000000;fill-opacity:1;fill-rule:nonzero;stroke:none"
                 id="path2948" />
              <path
                 inkscape:connector-curvature="0"
                 d="m -407.4487,635.1704 -0.2364,-0.4482 c 0.1031,0.1064 0.188,0.2505 0.2364,0.4482 z"
                 style="fill:#000000;fill-opacity:1;fill-rule:nonzero;stroke:none"
                 id="path2950" />
              <path
                 inkscape:connector-curvature="0"
                 d="m -407.9453,634.5449 c 0.0923,0.0176 0.1709,0.004 0.168,-0.1098 l -10e-4,-0.004 0.0932,0.291 -0.2602,-0.1773 z"
                 style="fill:#000000;fill-opacity:1;fill-rule:nonzero;stroke:none"
                 id="path2952" />
              <path
                 inkscape:connector-curvature="0"
                 d="m -407.9453,634.5449 -0.2432,-0.0742 z"
                 style="fill:#000000;fill-opacity:1;fill-rule:nonzero;stroke:none"
                 id="path2954" />
              <path
                 inkscape:connector-curvature="0"
                 d="m -409.2886,635.6099 c 0.002,0.1118 0.4063,-0.1485 0.4126,0.0766 0.1157,0.4707 0.128,0.9219 0.3438,1.2984 0.006,0.226 0.6235,0.2299 0.6289,0.4541 0.1152,0.4707 0.1518,1.8237 -0.1738,1.2016 -0.4649,-0.9482 -0.6958,-1.6074 -1.0914,-2.4702 l -0.6294,-2.2827 -0.3579,-0.5254 0.6177,0.6304 c 0.3159,0.2832 0.0274,1.0146 0.2495,1.6172 z"
                 style="fill:#000000;fill-opacity:1;fill-rule:nonzero;stroke:none"
                 id="path2956" />
              <path
                 inkscape:connector-curvature="0"
                 d="m -410.7808,629.834 c 0.003,0.1133 0.009,0.3384 0.009,0.3384 0.5205,0.2104 0.6363,0.6811 0.752,1.1508 l -0.3106,-0.059 c -0.1098,-0.2447 -0.009,-0.3379 0.2002,-0.1856 -0.5229,-0.3227 -0.8178,-0.7432 -1.0366,-1.2202 0.1289,-0.0371 0.2554,-0.1187 0.3862,-0.0244 z"
                 style="fill:#000000;fill-opacity:1;fill-rule:nonzero;stroke:none"
                 id="path2958" />
              <path
                 inkscape:connector-curvature="0"
                 d="m -411.2866,629.5723 0.1196,0.2861 -0.0425,0.0107 -0.0923,-0.2998 z"
                 style="fill:#000000;fill-opacity:1;fill-rule:nonzero;stroke:none"
                 id="path2960" />
              <path
                 inkscape:connector-curvature="0"
                 d="m -406.7778,637.2129 c 0.6435,1.1514 1.2846,2.2163 1.9311,3.2427 -0.0346,0.1274 -0.0952,0.2392 0.0156,0.3188 l 0.2911,0.1616 0.2861,0.4453 0.0615,0.1817 -5e-4,0.004 c 0.002,0.1133 -0.0757,0.126 -0.1675,0.1084 l -0.2431,-0.0742 0.2431,0.0742 0.2603,0.1787 0.2363,0.4468 c -0.0493,-0.1973 -0.1328,-0.3423 -0.2363,-0.4468 l -0.0923,-0.2915 -0.006,-0.0977 0.6645,1.0142 0.0923,0.2378 c 0.0894,0.2842 0.1797,0.5683 0.4717,0.6084 l 0.1206,0.1797 -0.0576,-0.0142 0.0786,0.0464 0.5112,0.7612 0.0669,0.6602 c 0,0 0.207,0.04 0.3106,0.0591 -0.063,0.1313 -0.0718,0.2739 -0.0376,0.4135 l -0.5738,-0.1928 c -0.311,-0.0586 0.188,-0.6372 -0.3257,-0.6216 0.5137,-0.0156 0.0147,0.563 0.3257,0.6216 l 0.5738,0.1928 c 0.0703,0.2935 0.3315,0.5743 0.6836,0.7173 -0.0103,-0.4243 -0.3379,-0.5991 -0.6836,-0.7173 -0.0342,-0.1396 -0.0254,-0.2822 0.0376,-0.4135 -0.1036,-0.0191 -0.3106,-0.0591 -0.3106,-0.0591 l -0.0669,-0.6602 1.0152,1.5113 c 2.248,3.2822 4.0297,6.4765 6.2832,9.9277 1.2338,1.8603 2.4829,3.6128 3.7768,5.292 2.5781,3.3462 3.9321,6.977 7.0972,10.0371 1.1792,1.1929 2.4873,3.9185 3.227,5.2998 0.3589,2.2153 -1.9687,2.3042 -2.1191,2.2759 -2.166,-0.2393 -1.8252,-1.5996 -4.0327,-3.3594 1.4023,1.2568 0.3183,-1.709 -1.5684,-2.5713 -2.8091,-1.2007 -3.2837,-4.9541 -5.1982,-7.333 -0.4795,-0.5942 -0.8076,-1.3286 -1.2906,-2.0928 -2.8769,-3.7373 -4.3769,-7.8862 -6.957,-12.0717 -0.647,-1.1304 -0.8335,-2.3448 -1.1709,-3.4161 -0.3286,-0.7343 -0.9614,-1.3593 -1.2861,-1.9228 -0.5083,-0.8882 -0.8037,-1.7368 -1.043,-2.5737 0.396,0.8618 0.6284,1.5224 1.0918,2.4692 0.3252,0.6221 0.2891,-0.7305 0.1738,-1.2002 -0.006,-0.2261 -0.624,-0.23 -0.6294,-0.4556 -0.2158,-0.3759 -0.228,-0.8266 -0.3427,-1.2968 -0.006,-0.2251 -0.4107,0.0351 -0.4136,-0.0772 -0.2227,-0.603 0.0674,-1.333 -0.249,-1.6172 l -0.6172,-0.6308 -0.2857,-0.4356 -0.0673,-0.3589 c 0.1728,0.006 0.3452,-0.0556 0.5175,-0.1186 l -0.4233,-0.4151 0.4233,0.4151 c -0.1723,0.063 -0.3447,0.1245 -0.5175,0.1186 -0.1719,-0.8623 -0.4341,-1.8213 -0.7012,-2.6987 l 0.0434,-0.0103 c 0.2188,0.4761 0.5123,0.8965 1.0352,1.2188 -0.209,-0.1504 -0.3096,-0.0581 -0.2002,0.188 l 0.3101,0.0586 c -0.1158,-0.4717 -0.2305,-0.9419 -0.751,-1.1504 0,0 -0.006,-0.2266 -0.009,-0.3394 -0.1313,-0.0947 -0.2583,-0.0127 -0.3853,0.0244 l -0.1215,-0.2866 c 0.3159,0.0703 0.9248,0.5098 0.9248,0.5098 z"
                 style="fill:#000000;fill-opacity:1;fill-rule:nonzero;stroke:none"
                 id="path2962" />
              <path
                 inkscape:connector-curvature="0"
                 d="m -404.0815,641.8574 -0.0933,-0.2378 0.564,0.8462 c -0.2915,-0.0376 -0.3809,-0.3218 -0.4707,-0.6084 z"
                 style="fill:#000000;fill-opacity:1;fill-rule:nonzero;stroke:none"
                 id="path2964" />
              <path
                 inkscape:connector-curvature="0"
                 d="m -373.6113,624.3501 0.0239,0.5698 -0.1714,-0.2861 c -0.0547,-0.124 0.0523,-0.1895 0.1475,-0.2837 z"
                 style="fill:#000000;fill-opacity:1;fill-rule:nonzero;stroke:none"
                 id="path2966" />
              <path
                 inkscape:connector-curvature="0"
                 d="m -373.5615,625.4482 0.005,0.1011 -0.043,0.086 0.0381,-0.1871 z"
                 style="fill:#000000;fill-opacity:1;fill-rule:nonzero;stroke:none"
                 id="path2968" />
              <path
                 inkscape:connector-curvature="0"
                 d="m -373.6841,626.4399 0.0195,-0.5063 c 0.0362,0.144 0.0376,0.311 -0.0195,0.5063 z"
                 style="fill:#000000;fill-opacity:1;fill-rule:nonzero;stroke:none"
                 id="path2970" />
              <path
                 inkscape:connector-curvature="0"
                 d="m -373.8013,625.6499 c 0.0713,0.0615 0.146,0.0894 0.2002,-0.0112 l 10e-4,-0.003 -0.065,0.2983 -0.1367,-0.2837 z"
                 style="fill:#000000;fill-opacity:1;fill-rule:nonzero;stroke:none"
                 id="path2972" />
              <path
                 inkscape:connector-curvature="0"
                 d="m -373.8013,625.6499 -0.1733,-0.1855 z"
                 style="fill:#000000;fill-opacity:1;fill-rule:nonzero;stroke:none"
                 id="path2974" />
              <path
                 inkscape:connector-curvature="0"
                 d="m -375.4971,625.9004 c -0.0537,0.0981 0.4263,0.0752 0.3194,0.2729 -0.1353,0.4654 -0.3506,0.8623 -0.3516,1.2964 -0.1079,0.1988 0.4248,0.5108 0.3174,0.7075 -0.1358,0.4654 -0.7803,1.6553 -0.751,0.9537 0.0713,-1.0533 0.2007,-1.7398 0.2896,-2.6846 l 0.5962,-2.2915 c 0.0224,-0.2202 -0.0147,-0.4263 -0.0469,-0.6343 l 0.2192,0.855 c 0.1323,0.4033 -0.4834,0.8921 -0.5923,1.5249 z"
                 style="fill:#000000;fill-opacity:1;fill-rule:nonzero;stroke:none"
                 id="path2976" />
              <path
                 inkscape:connector-curvature="0"
                 d="m -373.9014,620.1528 c -0.0537,0.0996 -0.1616,0.2974 -0.1616,0.2974 0.3457,0.4424 0.2105,0.9082 0.0757,1.3726 l -0.2393,-0.2066 c 0.0274,-0.2666 0.1612,-0.2974 0.2662,-0.0605 -0.2916,-0.5411 -0.3365,-1.0528 -0.2876,-1.5752 0.1303,0.0322 0.2802,0.0249 0.3466,0.1723 z"
                 style="fill:#000000;fill-opacity:1;fill-rule:nonzero;stroke:none"
                 id="path2978" />
              <path
                 inkscape:connector-curvature="0"
                 d="m -374.2085,619.6729 -0.0395,0.3076 -0.042,-0.0117 0.0698,-0.3062 z"
                 style="fill:#000000;fill-opacity:1;fill-rule:nonzero;stroke:none"
                 id="path2980" />
              <path
                 inkscape:connector-curvature="0"
                 d="m -374.124,628.5449 c -0.0186,1.3184 0.004,2.5611 0.0508,3.7735 -0.0933,0.0927 -0.2017,0.1591 -0.1456,0.2837 l 0.1709,0.2856 0.0254,0.5288 -0.0376,0.188 -0.002,0.003 c -0.0547,0.0996 -0.1289,0.0713 -0.1992,0.0103 l -0.1738,-0.1861 0.1738,0.1861 0.1357,0.2846 -0.0185,0.5054 c 0.0561,-0.1958 0.0561,-0.3628 0.0185,-0.5054 l 0.0659,-0.2983 0.0435,-0.0879 0.0684,1.2109 -0.0391,0.2515 c -0.0645,0.291 -0.1284,0.5825 0.1045,0.7632 l 0.0146,0.2158 -0.0429,-0.041 0.0449,0.0796 0.062,0.9145 -0.272,0.6055 c 0,0 0.1592,0.1377 0.2393,0.2061 -0.1201,0.0825 -0.1992,0.2016 -0.2393,0.3393 l -0.4004,-0.4536 c -0.2402,-0.2061 0.4815,-0.458 0.0288,-0.7012 0.4527,0.2432 -0.269,0.4951 -0.0288,0.7012 l 0.4004,0.4536 c -0.0859,0.2896 0,0.6636 0.2334,0.9634 0.2032,-0.3731 0.007,-0.6885 -0.2334,-0.9634 0.0401,-0.1377 0.1192,-0.2568 0.2393,-0.3393 -0.0801,-0.0684 -0.2393,-0.2061 -0.2393,-0.2061 l 0.272,-0.6055 0.1235,1.8164 c 0.3062,3.9663 0.252,7.6241 0.4776,11.7393 0.1386,2.2285 0.3442,4.3701 0.6255,6.4717 0.5595,4.187 -0.0835,8.0083 1.1274,12.2407 0.4248,1.6226 0.1948,4.6372 0.145,6.2031 -0.7969,2.0982 -2.8569,1.0117 -2.9731,0.9116 -1.7559,-1.29 -0.7808,-2.2978 -1.8125,-4.9257 0.5859,1.79 1.1299,-1.3208 -0.0728,-3.0108 -1.8325,-2.4448 -0.3667,-5.9321 -0.8354,-8.9497 -0.1182,-0.7544 -0.0352,-1.5547 -0.0713,-2.4575 -0.6231,-4.6753 0.1523,-9.0186 0.0107,-13.9336 0.005,-1.3018 0.4502,-2.4468 0.6939,-3.5435 0.0825,-0.8002 -0.1529,-1.6577 -0.1524,-2.3081 0.004,-1.0234 0.1724,-1.9062 0.3833,-2.7509 -0.0879,0.9448 -0.2168,1.6328 -0.289,2.6845 -0.0293,0.7017 0.6157,-0.4878 0.7509,-0.9521 0.1075,-0.1992 -0.4252,-0.5117 -0.3173,-0.7095 9e-4,-0.4331 0.2158,-0.8301 0.3515,-1.2944 0.1074,-0.1978 -0.373,-0.1748 -0.3198,-0.2739 0.1089,-0.6333 0.7251,-1.1207 0.5933,-1.5249 l -0.2193,-0.855 -0.0293,-0.52 0.1206,-0.3443 c 0.147,0.0913 0.3267,0.1245 0.5078,0.1558 l -0.1591,-0.5708 0.1591,0.5708 c -0.1811,-0.0313 -0.3608,-0.0645 -0.5078,-0.1558 0.2823,-0.8325 0.5352,-1.7944 0.7422,-2.688 l 0.043,0.0132 c -0.0488,0.5215 -0.005,1.0322 0.2871,1.5728 -0.106,-0.2344 -0.2393,-0.2051 -0.2676,0.0629 l 0.2393,0.2056 c 0.1357,-0.4663 0.2715,-0.9306 -0.0752,-1.3716 0,0 0.1079,-0.1997 0.1621,-0.2988 -0.0664,-0.1475 -0.2173,-0.1401 -0.3457,-0.1709 l 0.0381,-0.3096 c 0.2383,0.2188 0.5459,0.9048 0.5459,0.9048 z"
                 style="fill:#000000;fill-opacity:1;fill-rule:nonzero;stroke:none"
                 id="path2982" />
              <path
                 inkscape:connector-curvature="0"
                 d="m -374.1113,633.915 0.0381,-0.2529 0.0654,1.0147 c -0.2334,-0.1778 -0.169,-0.4688 -0.1035,-0.7618 z"
                 style="fill:#000000;fill-opacity:1;fill-rule:nonzero;stroke:none"
                 id="path2984" />
              <path
                 inkscape:connector-curvature="0"
                 d="m -374.9395,763.2749 -0.0239,-0.5698 0.1714,0.2861 c 0.0547,0.1235 -0.0522,0.189 -0.1475,0.2837 z"
                 style="fill:#000000;fill-opacity:1;fill-rule:nonzero;stroke:none"
                 id="path2986" />
              <path
                 inkscape:connector-curvature="0"
                 d="m -374.9893,762.1768 -0.005,-0.1011 0.0429,-0.086 -0.0381,0.1871 z"
                 style="fill:#000000;fill-opacity:1;fill-rule:nonzero;stroke:none"
                 id="path2988" />
              <path
                 inkscape:connector-curvature="0"
                 d="m -374.8667,761.1851 -0.0195,0.5063 c -0.0362,-0.144 -0.0376,-0.311 0.0195,-0.5063 z"
                 style="fill:#000000;fill-opacity:1;fill-rule:nonzero;stroke:none"
                 id="path2990" />
              <path
                 inkscape:connector-curvature="0"
                 d="m -374.7495,761.9751 c -0.0713,-0.0615 -0.146,-0.0894 -0.2002,0.0112 l -10e-4,0.003 0.065,-0.2983 0.1367,0.2837 z"
                 style="fill:#000000;fill-opacity:1;fill-rule:nonzero;stroke:none"
                 id="path2992" />
              <path
                 inkscape:connector-curvature="0"
                 d="m -374.7495,761.9751 0.1733,0.1855 z"
                 style="fill:#000000;fill-opacity:1;fill-rule:nonzero;stroke:none"
                 id="path2994" />
              <path
                 inkscape:connector-curvature="0"
                 d="m -373.0537,761.7246 c 0.0537,-0.0981 -0.4263,-0.0752 -0.3193,-0.2729 0.1352,-0.4654 0.3505,-0.8628 0.3515,-1.2964 0.1079,-0.1988 -0.4248,-0.5113 -0.3174,-0.7075 0.1358,-0.4654 0.7803,-1.6553 0.751,-0.9537 -0.0713,1.0533 -0.2007,1.7398 -0.2895,2.6846 l -0.5962,2.2915 c -0.0225,0.2202 0.0146,0.4263 0.0468,0.6343 l -0.2192,-0.855 c -0.1323,-0.4033 0.4834,-0.8921 0.5923,-1.5249 z"
                 style="fill:#000000;fill-opacity:1;fill-rule:nonzero;stroke:none"
                 id="path2996" />
              <path
                 inkscape:connector-curvature="0"
                 d="m -374.6494,767.4722 c 0.0537,-0.0996 0.1616,-0.2974 0.1616,-0.2974 -0.3457,-0.4424 -0.2104,-0.9082 -0.0757,-1.3726 l 0.2393,0.2066 c -0.0274,0.2666 -0.1612,0.2974 -0.2661,0.0605 0.2915,0.5411 0.3364,1.0528 0.2876,1.5752 -0.1304,-0.0322 -0.2803,-0.0249 -0.3467,-0.1723 z"
                 style="fill:#000000;fill-opacity:1;fill-rule:nonzero;stroke:none"
                 id="path2998" />
              <path
                 inkscape:connector-curvature="0"
                 d="m -374.3423,767.9521 0.0396,-0.3076 0.042,0.0118 -0.0699,0.3061 z"
                 style="fill:#000000;fill-opacity:1;fill-rule:nonzero;stroke:none"
                 id="path3000" />
              <path
                 inkscape:connector-curvature="0"
                 d="m -374.4268,759.0801 c 0.0186,-1.3184 -0.004,-2.5615 -0.0507,-3.7735 0.0932,-0.0927 0.2016,-0.1591 0.1455,-0.2837 l -0.1709,-0.2856 -0.0254,-0.5288 0.0376,-0.188 0.002,-0.003 c 0.0547,-0.0996 0.1289,-0.0713 0.1992,-0.0103 l 0.1739,0.1856 -0.1739,-0.1856 -0.1357,-0.2846 0.0185,-0.5054 c -0.0561,0.1953 -0.0561,0.3628 -0.0185,0.5054 l -0.0659,0.2983 -0.0435,0.0874 -0.0683,-1.2104 0.039,-0.252 c 0.0645,-0.2905 0.1284,-0.582 -0.1045,-0.7627 l -0.0146,-0.2158 0.043,0.041 -0.045,-0.0796 -0.062,-0.9145 0.272,-0.6055 c 0,0 -0.1592,-0.1377 -0.2393,-0.2061 0.1201,-0.0825 0.1993,-0.2016 0.2393,-0.3393 l 0.4004,0.4536 c 0.2402,0.2061 -0.4815,0.4575 -0.0288,0.7012 -0.4527,-0.2437 0.269,-0.4951 0.0288,-0.7012 l -0.4004,-0.4536 c 0.0859,-0.2896 0,-0.6636 -0.2334,-0.9634 -0.2031,0.3726 -0.007,0.688 0.2334,0.9634 -0.04,0.1377 -0.1192,0.2568 -0.2393,0.3393 0.0801,0.0684 0.2393,0.2061 0.2393,0.2061 l -0.272,0.6055 -0.1235,-1.8164 c -0.3062,-3.9668 -0.252,-7.6241 -0.4776,-11.7398 -0.1386,-2.228 -0.3442,-4.3701 -0.6254,-6.4712 -0.5596,-4.187 0.0835,-8.0088 -1.1275,-12.2412 -0.4248,-1.6225 -0.1948,-4.6372 -0.145,-6.2031 0.7969,-2.0982 2.8569,-1.0117 2.9731,-0.9116 1.7559,1.29 0.7808,2.2983 1.8125,4.9257 -0.5859,-1.7895 -1.1298,1.3208 0.0728,3.0108 1.8325,2.4448 0.3667,5.9321 0.8354,8.9497 0.1182,0.7549 0.0352,1.5547 0.0713,2.4575 0.6231,4.6753 -0.1523,9.0186 -0.0107,13.9336 -0.005,1.3023 -0.4502,2.4473 -0.6939,3.5435 -0.0825,0.8007 0.1529,1.6582 0.1524,2.3086 -0.004,1.0234 -0.1724,1.9057 -0.3833,2.7504 0.0879,-0.9443 0.2168,-1.6323 0.289,-2.684 0.0293,-0.7017 -0.6157,0.4878 -0.7509,0.9521 -0.1075,0.1992 0.4253,0.5112 0.3174,0.709 -10e-4,0.4336 -0.2159,0.8306 -0.3516,1.2949 -0.1074,0.1978 0.373,0.1748 0.3198,0.2735 -0.1089,0.6337 -0.7251,1.1211 -0.5932,1.5254 l 0.2192,0.8549 0.0293,0.5201 -0.1206,0.3442 c -0.147,-0.0913 -0.3267,-0.1245 -0.5078,-0.1563 l 0.1591,0.5713 -0.1591,-0.5713 c 0.1811,0.0318 0.3608,0.065 0.5078,0.1563 -0.2822,0.8325 -0.5352,1.7944 -0.7422,2.6875 l -0.043,-0.0127 c 0.0489,-0.5215 0.005,-1.0322 -0.2871,-1.5728 0.106,0.2344 0.2393,0.2051 0.2676,-0.0629 l -0.2393,-0.2056 c -0.1357,0.4663 -0.2714,0.9306 0.0752,1.3716 0,0 -0.1079,0.1992 -0.1621,0.2983 0.0664,0.1475 0.2173,0.1401 0.3457,0.1714 l -0.0381,0.3091 c -0.2382,-0.2188 -0.5459,-0.9043 -0.5459,-0.9043 z"
                 style="fill:#000000;fill-opacity:1;fill-rule:nonzero;stroke:none"
                 id="path3002" />
              <path
                 inkscape:connector-curvature="0"
                 d="m -374.4395,753.71 -0.038,0.2524 -0.0655,-1.0146 c 0.2334,0.1782 0.169,0.4692 0.1035,0.7622 z"
                 style="fill:#000000;fill-opacity:1;fill-rule:nonzero;stroke:none"
                 id="path3004" />
            </g>
          </g>
        </g>
      </g>
    </g>
  </g>
  <g
     inkscape:groupmode="layer"
     id="layer2"
     inkscape:label="logo"
     style="display:inline" />
</svg>
