<?xml version="1.0" encoding="UTF-8" standalone="no"?>
<svg
   xmlns:dc="http://purl.org/dc/elements/1.1/"
   xmlns:cc="http://creativecommons.org/ns#"
   xmlns:rdf="http://www.w3.org/1999/02/22-rdf-syntax-ns#"
   xmlns:svg="http://www.w3.org/2000/svg"
   xmlns="http://www.w3.org/2000/svg"
   xmlns:sodipodi="http://sodipodi.sourceforge.net/DTD/sodipodi-0.dtd"
   xmlns:inkscape="http://www.inkscape.org/namespaces/inkscape"
   width="217.99359"
   height="217.99359"
   viewBox="0 0 57.67747 57.677474"
   version="1.1"
   id="svg4043"
   inkscape:version="0.91 r13725"
   sodipodi:docname="01300snowden.svg"
   inkscape:export-filename="/home/user/builds/fsf/web/history-static/img/event/01300snowden.png"
   inkscape:export-xdpi="96"
   inkscape:export-ydpi="96">
  <defs
     id="defs4037" />
  <sodipodi:namedview
     id="base"
     pagecolor="#ffffff"
     bordercolor="#666666"
     borderopacity="1.0"
     inkscape:pageopacity="0.0"
     inkscape:pageshadow="2"
     inkscape:zoom="0.38"
     inkscape:cx="-359.29957"
     inkscape:cy="158.79085"
     inkscape:document-units="px"
     inkscape:current-layer="layer1"
     inkscape:document-rotation="0"
     showgrid="false"
     units="px"
     inkscape:window-width="1280"
     inkscape:window-height="674"
     inkscape:window-x="0"
     inkscape:window-y="0"
     inkscape:window-maximized="1"
     inkscape:snap-global="true"
     inkscape:snap-page="true"
     inkscape:snap-object-midpoints="true"
     showguides="true"
     inkscape:guide-bbox="true"
     fit-margin-top="0"
     fit-margin-left="0"
     fit-margin-right="0"
     fit-margin-bottom="0" />
  <metadata
     id="metadata4040">
    <rdf:RDF>
      <cc:Work
         rdf:about="">
        <dc:format>image/svg+xml</dc:format>
        <dc:type
           rdf:resource="http://purl.org/dc/dcmitype/StillImage" />
        <dc:title></dc:title>
        <cc:license
           rdf:resource="http://creativecommons.org/licenses/by-sa/3.0/" />
      </cc:Work>
      <cc:License
         rdf:about="http://creativecommons.org/licenses/by-sa/3.0/">
        <cc:permits
           rdf:resource="http://creativecommons.org/ns#Reproduction" />
        <cc:permits
           rdf:resource="http://creativecommons.org/ns#Distribution" />
        <cc:requires
           rdf:resource="http://creativecommons.org/ns#Notice" />
        <cc:requires
           rdf:resource="http://creativecommons.org/ns#Attribution" />
        <cc:permits
           rdf:resource="http://creativecommons.org/ns#DerivativeWorks" />
        <cc:requires
           rdf:resource="http://creativecommons.org/ns#ShareAlike" />
      </cc:License>
    </rdf:RDF>
  </metadata>
  <g
     inkscape:label="Layer 1"
     inkscape:groupmode="layer"
     id="layer1"
     transform="translate(-92.532816,-4971.7863)">
    <circle
       r="28.838737"
       cy="5000.625"
       cx="121.37152"
       id="circle88848"
       style="opacity:1;fill:#fff4b6;fill-opacity:1;stroke:none;stroke-width:0.50453001;stroke-linecap:round;stroke-linejoin:round;stroke-miterlimit:4;stroke-dasharray:none;stroke-dashoffset:0;stroke-opacity:1" />
    <g
       transform="matrix(0.89040656,0,0,0.89040656,17.826525,4891.808)"
       id="g89156">
      <g
         transform="matrix(0.81860691,0,0,0.81860691,16.278207,15.904745)"
         id="g89060">
        <ellipse
           transform="scale(-1,1)"
           ry="15.992192"
           rx="16.160585"
           style="opacity:1;fill:#87ce7d;fill-opacity:1;stroke:none;stroke-width:0.58892298;stroke-linecap:butt;stroke-linejoin:miter;stroke-miterlimit:4;stroke-dasharray:none;stroke-dashoffset:0;stroke-opacity:1;marker:none;marker-start:none;marker-mid:none;marker-end:none;paint-order:normal"
           id="circle1389-2-4-1"
           cx="-122.17264"
           cy="113.12977" />
        <g
           style="stroke-width:0.69908798"
           transform="matrix(-0.0858334,0,0,0.08493902,183.24288,-83.883521)"
           id="g923-4-8">
          <path
             inkscape:connector-curvature="0"
             transform="matrix(2.2436143,0,0,2.2672389,-30.184576,2094.2271)"
             sodipodi:nodetypes="cscccscsccccsccccccscccsssscccccccssscccsssscc"
             d="m 328.7207,46.318359 c -11.16527,0.234426 -20.30251,9.098146 -20.63476,20.269532 -0.2052,6.898964 2.99493,13.114739 8.09375,17.068359 l -5.70508,12.400391 -1.66211,-0.847657 c -11.16309,-5.906303 -25.35268,-4.22337 -34.79492,5.070316 -11.58192,11.39968 -11.63264,29.93213 -0.11328,41.39453 11.51945,11.46235 30.24626,11.51487 41.82812,0.11523 11.58192,-11.39968 11.63265,-29.93213 0.11328,-41.39453 -1.08271,-1.077256 -2.22965,-2.055993 -3.42773,-2.931639 l -1.83789,-1.357422 9.20117,-10.197266 c 2.6527,1.308199 5.62604,2.08191 8.7832,2.173828 3.88394,0.113133 7.55284,-0.82042 10.73243,-2.541015 l 8.39062,8.283203 c -4.22817,2.867188 -6.76071,7.643311 -6.76172,12.751951 -5.6e-4,8.51211 6.9,15.41267 15.41211,15.41211 5.14309,-7.7e-4 9.94684,-2.56712 12.80664,-6.8418 0.20929,-0.26759 0.40109,-0.52505 0.55078,-0.75586 1.30372,-2.16024 2.08589,-4.66921 2.16602,-7.36328 0.0583,-1.96088 -0.25898,-3.84594 -0.88867,-5.58789 l -0.83204,-1.798825 11.22071,-3.576172 c 2.01137,2.507367 5.08361,4.152327 8.57031,4.253907 6.27483,0.18273 11.51064,-4.702663 11.69531,-10.91211 0.18469,-6.209403 -4.75251,-11.391485 -11.02734,-11.574219 -6.27477,-0.182777 -11.51064,4.702707 -11.69531,10.91211 -0.0371,1.246582 0.13142,2.452387 0.47656,3.583984 l -9.23828,7.294922 -1.14844,-1.919922 c -0.40431,-0.559012 -0.85663,-1.080463 -1.33203,-1.580078 -2.91762,-3.160187 -7.02314,-4.957322 -11.32422,-4.957031 -3.04999,3.96e-4 -6.03129,0.905795 -8.56641,2.601562 L 342.8125,83.154297 c 4.41688,-3.697317 7.28906,-9.165052 7.47266,-15.337891 0.2465,-8.288496 -4.41923,-15.590225 -11.39063,-19.167968 -2.72793,-1.399985 -5.81044,-2.230682 -9.08789,-2.326172 -0.36416,-0.01059 -0.72577,-0.01096 -1.08594,-0.0039 z m 38.23275,71.575571 8.861,11.4713 c -1.41356,1.92481 -2.27743,4.27616 -2.35351,6.83399 -0.20116,6.76382 5.17668,12.40832 12.01172,12.60742 6.83502,0.19905 12.53906,-5.12285 12.74023,-11.88672 0.20117,-6.76382 -5.17668,-12.40837 -12.01172,-12.60742 -2.71199,-0.079 -5.24532,0.71071 -7.32812,2.11523 z"
             style="fill:#ffffff;fill-opacity:1;stroke:none;stroke-width:9.1635704;stroke-linecap:round;stroke-linejoin:round;stroke-opacity:0.92549002"
             id="path897-7-7-9" />
          <path
             inkscape:connector-curvature="0"
             d="m 594.78212,2326.4272 c -11.53407,10.2663 -18.81724,25.212 -18.86322,41.8682 -0.0856,31.0582 25.02306,56.3055 56.08044,56.3892 19.04442,0.051 35.89894,-9.3729 46.11173,-23.8307 -9.97309,8.8762 -23.12215,14.2567 -37.52322,14.2179 -31.05706,-0.084 -56.16588,-25.3268 -56.08047,-56.385 0.0332,-12.014 3.83202,-23.1397 10.27474,-32.2596 z m 226.29511,60.5437 c -4.65186,4.1409 -7.58953,10.1687 -7.60787,16.887 -0.0348,12.5273 10.09234,22.7109 22.61919,22.7447 7.6815,0.021 14.48032,-3.7807 18.59961,-9.6123 -4.02274,3.5802 -9.32635,5.751 -15.13488,5.7353 -12.527,-0.034 -22.65451,-10.2156 -22.62003,-22.743 0.0133,-4.8458 1.54563,-9.3332 4.14398,-13.0117 z m -70.08848,-72.9455 c -5.89207,5.2446 -9.61308,12.8796 -9.63664,21.3885 -0.0438,15.8665 12.78328,28.7642 28.64934,28.8069 9.72908,0.026 18.34001,-4.7882 23.55731,-12.1741 -5.09494,4.5345 -11.81256,7.2831 -19.16942,7.2633 -15.86591,-0.043 -28.69324,-12.9385 -28.64962,-28.805 0.0169,-6.1374 1.95787,-11.8206 5.24903,-16.4796 z M 682.2145,2213.6047 c -8.45976,7.5299 -13.80159,18.4916 -13.83536,30.7083 -0.0628,22.7801 18.35363,41.2978 41.13284,41.3592 13.96853,0.038 26.33069,-6.8744 33.82149,-17.4787 -7.31499,6.5104 -16.95964,10.4567 -27.52214,10.4282 -22.7792,-0.061 -41.19547,-18.5763 -41.13285,-41.3564 0.0243,-8.8117 2.81061,-16.9715 7.53602,-23.6606 z m 149.57272,67.4682 c -4.27066,3.8015 -6.96839,9.336 -6.98518,15.5036 -0.0319,11.5005 9.26589,20.8487 20.76605,20.8797 7.05189,0.019 13.29276,-3.4703 17.07444,-8.8239 -3.69294,3.2868 -8.56187,5.2792 -13.89428,5.2648 -11.50018,-0.031 -20.79747,-9.3783 -20.76579,-20.8788 0.0123,-4.4487 1.41941,-8.5683 3.80476,-11.9454 z"
             style="color:#000000;font-style:normal;font-variant:normal;font-weight:normal;font-stretch:normal;font-size:medium;line-height:normal;font-family:Sans;-inkscape-font-specification:Sans;text-indent:0;text-align:start;text-decoration:none;text-decoration-line:none;letter-spacing:normal;word-spacing:normal;text-transform:none;direction:ltr;writing-mode:lr-tb;baseline-shift:baseline;text-anchor:start;display:inline;overflow:visible;visibility:visible;fill:#87ce7d;fill-opacity:1;stroke:none;stroke-width:5.89246988;stroke-linecap:butt;stroke-linejoin:miter;stroke-miterlimit:4;stroke-dasharray:none;stroke-dashoffset:0;stroke-opacity:1;marker:none;marker-start:none;marker-mid:none;marker-end:none;paint-order:normal;enable-background:accumulate"
             id="path1407-6-6-7" />
          <path
             style="color:#000000;display:inline;overflow:visible;visibility:visible;fill:#ffffff;fill-opacity:1;fill-rule:evenodd;stroke:none;stroke-width:0.79194099;stroke-linecap:butt;stroke-linejoin:miter;stroke-miterlimit:4;stroke-dasharray:none;stroke-dashoffset:0;stroke-opacity:1;marker:none;marker-start:none;marker-mid:none;marker-end:none;paint-order:normal;enable-background:accumulate"
             d="m 687.45179,2389.0799 c 14.78563,22.7906 20.37601,41.9697 12.67005,49.6332 -8.14126,8.0965 -29.73403,1.9585 -54.1265,-14.8807 -12.22507,-8.4394 -25.31692,-19.3827 -38.12139,-32.2561 -12.80229,-12.8716 -23.68061,-26.024 -32.05248,-38.2917 -16.7086,-24.4834 -22.72576,-46.1088 -14.584,-54.2058 7.7053,-7.663 26.8534,-1.9679 49.56023,12.9381 -0.48192,-0.031 -0.96552,-0.07 -1.44261,-0.086 -0.82307,-0.028 -1.63942,-0.036 -2.44607,-0.021 -0.47703,0.01 -0.94412,0.042 -1.4149,0.066 -9.74621,-4.1902 -17.42764,-4.8474 -21.26863,-1.0274 -2.55693,2.5426 -3.5951,7.2434 -2.48162,12.6831 2.85653,13.9553 16.90729,35.7308 37.60115,56.5366 20.69897,20.8107 42.3995,34.9738 56.33941,37.9014 5.42941,1.1404 10.13328,0.1301 12.68857,-2.411 3.84,-3.8187 3.22652,-11.4996 -0.90627,-21.2623 0.0267,-0.4721 0.0615,-0.9423 0.0728,-1.4209 0.019,-0.8066 0.0162,-1.6229 -0.008,-2.4459 -0.0141,-0.4792 -0.0515,-0.9654 -0.08,-1.4496 z"
             id="path1409-2-3-5"
             inkscape:connector-curvature="0"
             sodipodi:nodetypes="cssssscsccssssscccc" />
          <path
             inkscape:connector-curvature="0"
             id="path1411-6-1-3"
             d="m 635.04055,2227.7614 c -0.19235,6.5356 4.95003,11.9886 11.48574,12.1809 0,0 -5e-5,0 -5e-5,0 -6.53507,-0.1923 -11.98911,4.9494 -12.18225,11.4843 0.19234,-6.535 -4.9505,-11.9885 -11.48574,-12.1809 0,0 5e-5,0 5e-5,0 6.53571,0.1924 11.9899,-4.9487 12.18225,-11.4843 z"
             style="color:#000000;display:inline;overflow:visible;visibility:visible;fill:#ffffff;fill-opacity:1;fill-rule:evenodd;stroke:none;stroke-width:0.79194099;stroke-linecap:butt;stroke-linejoin:miter;stroke-miterlimit:4;stroke-dasharray:none;stroke-dashoffset:0;stroke-opacity:1;marker:none;marker-start:none;marker-mid:none;marker-end:none;paint-order:normal;enable-background:accumulate" />
          <path
             sodipodi:nodetypes="ccccccc"
             style="color:#000000;display:inline;overflow:visible;visibility:visible;fill:#ffffff;fill-opacity:1;fill-rule:evenodd;stroke:none;stroke-width:0.79194099;stroke-linecap:butt;stroke-linejoin:miter;stroke-miterlimit:4;stroke-dasharray:none;stroke-dashoffset:0;stroke-opacity:1;marker:none;marker-start:none;marker-mid:none;marker-end:none;paint-order:normal;enable-background:accumulate"
             d="m 799.3171,2192.7231 c -0.44392,15.0829 11.4238,27.6674 26.50693,28.1113 l -1.1e-4,0 c -15.08169,-0.4439 -27.66855,11.4221 -28.11434,26.5036 0.44388,-15.0815 -11.42476,-27.6673 -26.50693,-28.1112 l 1.1e-4,0 c 15.08328,0.4439 27.67042,-11.4208 28.11434,-26.5037 z"
             id="path1413-1-7-8"
             inkscape:connector-curvature="0" />
        </g>
      </g>
      <g
         transform="translate(-3.2709674,-6.5104261)"
         id="g89127">
        <g
           style="font-style:normal;font-weight:normal;font-size:10.35219955px;line-height:1.25;font-family:sans-serif;fill:#2e3436;fill-opacity:1;stroke:none;stroke-width:0.25880399"
           id="text89064"
           aria-label="LIBRE">
          <path
             inkscape:connector-curvature="0"
             id="path89098"
             style="font-style:normal;font-variant:normal;font-weight:900;font-stretch:normal;font-family:Montserrat;-inkscape-font-specification:'Montserrat Heavy';fill:#2e3436;fill-opacity:1;stroke-width:0.25880399"
             d="m 103.64575,130.76272 2.44312,0 0,5.35209 3.2713,0 0,1.89445 -5.71442,0 z" />
          <path
             inkscape:connector-curvature="0"
             id="path89100"
             style="font-style:normal;font-variant:normal;font-weight:900;font-stretch:normal;font-family:Montserrat;-inkscape-font-specification:'Montserrat Heavy';fill:#2e3436;fill-opacity:1;stroke-width:0.25880399"
             d="m 110.03305,130.76272 2.44312,0 0,7.24654 -2.44312,0 z" />
          <path
             inkscape:connector-curvature="0"
             id="path89102"
             style="font-style:normal;font-variant:normal;font-weight:900;font-stretch:normal;font-family:Montserrat;-inkscape-font-specification:'Montserrat Heavy';fill:#2e3436;fill-opacity:1;stroke-width:0.25880399"
             d="m 119.45353,134.22036 q 0.64184,0.2381 0.99382,0.69359 0.35197,0.4555 0.35197,1.09734 0,0.9524 -0.78677,1.48036 -0.78676,0.51761 -2.27748,0.51761 l -4.07877,0 0,-7.24654 3.87172,0 q 1.44931,0 2.18432,0.51761 0.74536,0.51761 0.74536,1.37684 0,0.50726 -0.25881,0.911 -0.24845,0.40373 -0.74536,0.65219 z m -3.39552,-1.74952 0,1.07662 1.13874,0 q 0.79712,0 0.79712,-0.53831 0,-0.53831 -0.79712,-0.53831 z m 1.47001,3.83031 q 0.80748,0 0.80748,-0.56937 0,-0.56937 -0.80748,-0.56937 l -1.47001,0 0,1.13874 z" />
          <path
             inkscape:connector-curvature="0"
             id="path89104"
             style="font-style:normal;font-variant:normal;font-weight:900;font-stretch:normal;font-family:Montserrat;-inkscape-font-specification:'Montserrat Heavy';fill:#2e3436;fill-opacity:1;stroke-width:0.25880399"
             d="m 124.7642,136.18727 -0.66254,0 0,1.82199 -2.44312,0 0,-7.24654 3.48869,0 q 1.00416,0 1.74952,0.33127 0.74536,0.33127 1.1491,0.95241 0.40373,0.62113 0.40373,1.4493 0,0.77642 -0.35197,1.35614 -0.35198,0.57972 -1.01452,0.92135 l 1.52178,2.23607 -2.60876,0 z m 1.22156,-2.69157 q 0,-0.40373 -0.24845,-0.62113 -0.24846,-0.22775 -0.74536,-0.22775 l -0.89029,0 0,1.69776 0.89029,0 q 0.4969,0 0.74536,-0.21739 0.24845,-0.22775 0.24845,-0.63149 z" />
          <path
             inkscape:connector-curvature="0"
             id="path89106"
             style="font-style:normal;font-variant:normal;font-weight:900;font-stretch:normal;font-family:Montserrat;-inkscape-font-specification:'Montserrat Heavy';fill:#2e3436;fill-opacity:1;stroke-width:0.25880399"
             d="m 135.3959,136.16657 0,1.84269 -6.02498,0 0,-7.24654 5.8904,0 0,1.84269 -3.48869,0 0,0.84888 3.06425,0 0,1.75988 -3.06425,0 0,0.9524 z" />
        </g>
        <g
           style="font-style:normal;font-weight:normal;font-size:7.93553019px;line-height:1.25;font-family:sans-serif;fill:#2e3436;fill-opacity:1;stroke:none;stroke-width:0.19838899"
           id="text89070"
           aria-label="PLANET">
          <path
             inkscape:connector-curvature="0"
             id="path89085"
             style="font-style:normal;font-variant:normal;font-weight:500;font-stretch:normal;font-family:Montserrat;-inkscape-font-specification:'Montserrat Medium';fill:#2e3436;fill-opacity:1;stroke-width:0.19838899"
             d="m 106.32015,139.0654 q 1.07923,0 1.6982,0.51581 0.61897,0.51581 0.61897,1.42046 0,0.90465 -0.61897,1.42046 -0.61897,0.51581 -1.6982,0.51581 l -1.37285,0 0,1.68233 -0.79355,0 0,-5.55487 z m -0.0238,3.18215 q 0.75388,0 1.15065,-0.31742 0.39678,-0.32536 0.39678,-0.92846 0,-0.6031 -0.39678,-0.92052 -0.39677,-0.32536 -1.15065,-0.32536 l -1.34904,0 0,2.49176 z" />
          <path
             inkscape:connector-curvature="0"
             id="path89087"
             style="font-style:normal;font-variant:normal;font-weight:500;font-stretch:normal;font-family:Montserrat;-inkscape-font-specification:'Montserrat Medium';fill:#2e3436;fill-opacity:1;stroke-width:0.19838899"
             d="m 109.80383,139.0654 0.79355,0 0,4.86448 3.00757,0 0,0.69039 -3.80112,0 z" />
          <path
             inkscape:connector-curvature="0"
             id="path89089"
             style="font-style:normal;font-variant:normal;font-weight:500;font-stretch:normal;font-family:Montserrat;-inkscape-font-specification:'Montserrat Medium';fill:#2e3436;fill-opacity:1;stroke-width:0.19838899"
             d="m 118.08057,143.23155 -2.95201,0 -0.61104,1.38872 -0.81736,0 2.51556,-5.55487 0.78562,0 2.5235,5.55487 -0.83323,0 z m -0.27774,-0.63484 -1.19826,-2.72189 -1.19827,2.72189 z" />
          <path
             inkscape:connector-curvature="0"
             id="path89091"
             style="font-style:normal;font-variant:normal;font-weight:500;font-stretch:normal;font-family:Montserrat;-inkscape-font-specification:'Montserrat Medium';fill:#2e3436;fill-opacity:1;stroke-width:0.19838899"
             d="m 125.12731,139.0654 0,5.55487 -0.65071,0 -3.33292,-4.14235 0,4.14235 -0.79356,0 0,-5.55487 0.65072,0 3.33292,4.14235 0,-4.14235 z" />
          <path
             inkscape:connector-curvature="0"
             id="path89093"
             style="font-style:normal;font-variant:normal;font-weight:500;font-stretch:normal;font-family:Montserrat;-inkscape-font-specification:'Montserrat Medium';fill:#2e3436;fill-opacity:1;stroke-width:0.19838899"
             d="m 130.82501,143.92988 0,0.69039 -4.03125,0 0,-5.55487 3.92015,0 0,0.69039 -3.1266,0 0,1.70614 2.78538,0 0,0.67452 -2.78538,0 0,1.79343 z" />
          <path
             inkscape:connector-curvature="0"
             id="path89095"
             style="font-style:normal;font-variant:normal;font-weight:500;font-stretch:normal;font-family:Montserrat;-inkscape-font-specification:'Montserrat Medium';fill:#2e3436;fill-opacity:1;stroke-width:0.19838899"
             d="m 133.21359,139.75579 -1.90453,0 0,-0.69039 4.59467,0 0,0.69039 -1.90452,0 0,4.86448 -0.78562,0 z" />
        </g>
        <g
           style="font-style:normal;font-weight:normal;font-size:13.39659977px;line-height:1.25;font-family:sans-serif;fill:#87ce7d;fill-opacity:1;stroke:none;stroke-width:0.33491701"
           id="text89074"
           aria-label="2016">
          <path
             inkscape:connector-curvature="0"
             id="path89076"
             style="font-style:normal;font-variant:normal;font-weight:900;font-stretch:normal;font-family:Montserrat;-inkscape-font-specification:'Montserrat Heavy';fill:#87ce7d;fill-opacity:1;stroke-width:0.33491701"
             d="m 111.28211,152.84362 0,2.45158 -7.5155,0 0,-1.94251 3.38934,-3.1348 q 0.44209,-0.4153 0.58945,-0.71002 0.14737,-0.29473 0.14737,-0.57606 0,-0.34831 -0.24114,-0.53586 -0.22774,-0.20095 -0.66983,-0.20095 -0.42869,0 -0.8038,0.22774 -0.3751,0.22774 -0.57605,0.64304 l -2.3846,-1.1923 q 0.53587,-1.00474 1.56741,-1.5808 1.03153,-0.58945 2.49176,-0.58945 1.11192,0 1.9693,0.36171 0.85739,0.36171 1.33966,1.03154 0.48228,0.66983 0.48228,1.54061 0,0.777 -0.33491,1.46023 -0.32152,0.66983 -1.27268,1.52721 l -1.33966,1.21909 z" />
          <path
             inkscape:connector-curvature="0"
             id="path89078"
             style="font-style:normal;font-variant:normal;font-weight:900;font-stretch:normal;font-family:Montserrat;-inkscape-font-specification:'Montserrat Heavy';fill:#87ce7d;fill-opacity:1;stroke-width:0.33491701"
             d="m 116.17186,155.50954 q -1.24588,0 -2.21044,-0.57605 -0.95115,-0.58945 -1.50041,-1.68797 -0.53587,-1.11192 -0.53587,-2.63913 0,-1.52722 0.53587,-2.62574 0.54926,-1.11191 1.50041,-1.68797 0.96456,-0.58945 2.21044,-0.58945 1.24589,0 2.19705,0.58945 0.96455,0.57606 1.50042,1.68797 0.54926,1.09852 0.54926,2.62574 0,1.52721 -0.54926,2.63913 -0.53587,1.09852 -1.50042,1.68797 -0.95116,0.57605 -2.19705,0.57605 z m 0,-2.53196 q 1.07173,0 1.07173,-2.37119 0,-2.3712 -1.07173,-2.3712 -1.07172,0 -1.07172,2.3712 0,2.37119 1.07172,2.37119 z" />
          <path
             inkscape:connector-curvature="0"
             id="path89080"
             style="font-style:normal;font-variant:normal;font-weight:900;font-stretch:normal;font-family:Montserrat;-inkscape-font-specification:'Montserrat Heavy';fill:#87ce7d;fill-opacity:1;stroke-width:0.33491701"
             d="m 125.50928,145.91758 0,9.37762 -3.16159,0 0,-6.99303 -1.6076,0 0,-2.38459 z" />
          <path
             inkscape:connector-curvature="0"
             id="path89082"
             style="font-style:normal;font-variant:normal;font-weight:900;font-stretch:normal;font-family:Montserrat;-inkscape-font-specification:'Montserrat Heavy';fill:#87ce7d;fill-opacity:1;stroke-width:0.33491701"
             d="m 131.75209,149.22654 q 0.85738,0 1.5942,0.3751 0.73681,0.37511 1.1789,1.05833 0.44208,0.68323 0.44208,1.56741 0,0.97795 -0.50907,1.72816 -0.49567,0.75021 -1.36645,1.1521 -0.87078,0.4019 -1.92911,0.4019 -1.35306,0 -2.3712,-0.52247 -1.00474,-0.52246 -1.5674,-1.554 -0.56266,-1.03154 -0.56266,-2.53196 0,-1.60759 0.64304,-2.78649 0.65643,-1.1789 1.82194,-1.79515 1.1789,-0.61624 2.7329,-0.61624 0.84399,0 1.60759,0.20095 0.76361,0.18755 1.29947,0.53586 l -1.13871,2.21044 q -0.69662,-0.49567 -1.70136,-0.49567 -0.8172,0 -1.35306,0.41529 -0.52247,0.4019 -0.68323,1.1789 0.73682,-0.52246 1.86213,-0.52246 z m -0.8038,4.09936 q 0.4287,0 0.69663,-0.25454 0.26793,-0.25453 0.26793,-0.69662 0,-0.44209 -0.26793,-0.69663 -0.26793,-0.26793 -0.69663,-0.26793 -0.42869,0 -0.69662,0.26793 -0.26793,0.25454 -0.26793,0.69663 0,0.44209 0.26793,0.69662 0.26793,0.25454 0.69662,0.25454 z" />
        </g>
      </g>
    </g>
  </g>
</svg>
