<?xml version="1.0" encoding="UTF-8" standalone="no"?>
<svg
   xmlns:dc="http://purl.org/dc/elements/1.1/"
   xmlns:cc="http://creativecommons.org/ns#"
   xmlns:rdf="http://www.w3.org/1999/02/22-rdf-syntax-ns#"
   xmlns:svg="http://www.w3.org/2000/svg"
   xmlns="http://www.w3.org/2000/svg"
   xmlns:sodipodi="http://sodipodi.sourceforge.net/DTD/sodipodi-0.dtd"
   xmlns:inkscape="http://www.inkscape.org/namespaces/inkscape"
   width="59.525959"
   height="449.65536"
   viewBox="0 0 15.749576 118.97132"
   version="1.1"
   id="svg4043"
   inkscape:version="0.91 r13725"
   sodipodi:docname="train.svg"
   inkscape:export-filename="/home/raghu/emblik/2020/fsf/fundraiser-nov20/timeline/page-vertical.png"
   inkscape:export-xdpi="96"
   inkscape:export-ydpi="96">
  <defs
     id="defs4037">
    <clipPath
       clipPathUnits="userSpaceOnUse"
       id="clipPath1360">
      <path
         id="path1362"
         style="opacity:1;fill:#7c45ad;fill-opacity:1;stroke:none;stroke-width:1.45973003;stroke-linecap:butt;stroke-linejoin:miter;stroke-miterlimit:4;stroke-dasharray:none;stroke-dashoffset:0;stroke-opacity:1"
         d="m 322.14572,66.71014 c -0.97939,-0.0058 -1.9566,0.05064 -2.92386,0.18035 0.29369,0.433179 0.65018,0.913998 1.28159,1.951303 1.32223,2.172327 0.9295,6.043779 0.0822,7.707026 -0.54748,1.074706 -0.99227,2.189586 -1.48362,3.300058 -0.33743,0.76258 1.31997,1.129742 2.25464,1.020091 l 11.27477,-1.584399 c 0.98608,-0.115679 1.85507,-0.306621 2.33111,-0.723469 1.06421,-0.692682 1.76321,-1.874001 1.76321,-3.220995 l 0,-3.372403 c -0.22082,-1.404951 -1.31373,-2.093188 -2.3854,-2.517677 -3.66789,-1.515531 -7.95057,-2.714599 -12.19459,-2.739885 z"
         inkscape:connector-curvature="0" />
    </clipPath>
    <clipPath
       clipPathUnits="userSpaceOnUse"
       id="clipPath1364">
      <path
         id="path1366"
         style="opacity:1;fill:#7c45ad;fill-opacity:1;stroke:none;stroke-width:1.45973003;stroke-linecap:butt;stroke-linejoin:miter;stroke-miterlimit:4;stroke-dasharray:none;stroke-dashoffset:0;stroke-opacity:1"
         d="m 322.14572,66.71014 c -0.97939,-0.0058 -1.9566,0.05064 -2.92386,0.18035 0.29369,0.433179 0.65018,0.913998 1.28159,1.951303 1.32223,2.172327 0.9295,6.043779 0.0822,7.707026 -0.54748,1.074706 -0.99227,2.189586 -1.48362,3.300058 -0.33743,0.76258 1.31997,1.129742 2.25464,1.020091 l 11.27477,-1.584399 c 0.98608,-0.115679 1.85507,-0.306621 2.33111,-0.723469 1.06421,-0.692682 1.76321,-1.874001 1.76321,-3.220995 l 0,-3.372403 c -0.22082,-1.404951 -1.31373,-2.093188 -2.3854,-2.517677 -3.66789,-1.515531 -7.95057,-2.714599 -12.19459,-2.739885 z"
         inkscape:connector-curvature="0" />
    </clipPath>
    <clipPath
       clipPathUnits="userSpaceOnUse"
       id="clipPath107483">
      <rect
         style="opacity:1;fill:#a6bff6;fill-opacity:1;stroke:none;stroke-width:0;stroke-linecap:round;stroke-linejoin:round;stroke-miterlimit:4;stroke-dasharray:none;stroke-dashoffset:0;stroke-opacity:1"
         id="rect107485"
         width="660.15302"
         height="356.66553"
         x="-264.35181"
         y="-13.396458"
         transform="matrix(0.99960158,0.02822564,0,1,0,0)" />
    </clipPath>
  </defs>
  <sodipodi:namedview
     id="base"
     pagecolor="#ffffff"
     bordercolor="#666666"
     borderopacity="1.0"
     inkscape:pageopacity="0.0"
     inkscape:pageshadow="2"
     inkscape:zoom="0.25"
     inkscape:cx="-658.30809"
     inkscape:cy="-49.949144"
     inkscape:document-units="px"
     inkscape:current-layer="layer1"
     inkscape:document-rotation="0"
     showgrid="false"
     units="px"
     inkscape:window-width="1920"
     inkscape:window-height="1031"
     inkscape:window-x="0"
     inkscape:window-y="0"
     inkscape:window-maximized="1"
     inkscape:snap-global="true"
     inkscape:snap-page="true"
     inkscape:snap-object-midpoints="true"
     showguides="true"
     inkscape:guide-bbox="true"
     fit-margin-top="0"
     fit-margin-left="0"
     fit-margin-right="0"
     fit-margin-bottom="0" />
  <metadata
     id="metadata4040">
    <rdf:RDF>
      <cc:Work
         rdf:about="">
        <dc:format>image/svg+xml</dc:format>
        <dc:type
           rdf:resource="http://purl.org/dc/dcmitype/StillImage" />
        <dc:title></dc:title>
        <cc:license
           rdf:resource="http://creativecommons.org/licenses/by-sa/3.0/" />
      </cc:Work>
      <cc:License
         rdf:about="http://creativecommons.org/licenses/by-sa/3.0/">
        <cc:permits
           rdf:resource="http://creativecommons.org/ns#Reproduction" />
        <cc:permits
           rdf:resource="http://creativecommons.org/ns#Distribution" />
        <cc:requires
           rdf:resource="http://creativecommons.org/ns#Notice" />
        <cc:requires
           rdf:resource="http://creativecommons.org/ns#Attribution" />
        <cc:permits
           rdf:resource="http://creativecommons.org/ns#DerivativeWorks" />
        <cc:requires
           rdf:resource="http://creativecommons.org/ns#ShareAlike" />
      </cc:License>
    </rdf:RDF>
  </metadata>
  <g
     inkscape:label="Layer 1"
     inkscape:groupmode="layer"
     id="layer1"
     transform="translate(-417.91391,4.1157728e-7)">
    <g
       id="g1454"
       transform="matrix(0.7698253,-0.02262257,0,0.80117081,203.42362,10.732851)"
       clip-path="url(#clipPath107483)">
      <path
         id="rect6575"
         style="opacity:1;fill:#e75e57;fill-opacity:1;stroke:#7c45ad;stroke-width:1.43427002;stroke-linecap:butt;stroke-linejoin:miter;stroke-miterlimit:4;stroke-dasharray:none;stroke-dashoffset:0;stroke-opacity:1"
         d="m 282.46781,-11.208381 1.93724,-1.05834 12.12427,0.55541 c 1.73133,0.07931 1.83417,2.4273697 1.83417,4.1605297 l 0,59.2217303 c 0,1.73316 -1.39529,3.12845 -3.12844,3.12845 l -10.53755,-1.05833 -2.22969,0.52917 c -1.68632,0.40021 -3.12844,-1.39529 -3.12844,-3.12845 l 0,-59.2217303 c 0,-1.73316 1.60745,-2.2975097 3.12844,-3.1284397 z"
         sodipodi:nodetypes="ssssscsssss"
         inkscape:connector-curvature="0" />
      <g
         id="g1324"
         transform="matrix(0,1,-1,0,333.66204,-134.24497)">
        <path
           id="path6628"
           style="opacity:1;fill:#6e1e1e;fill-opacity:1;stroke:none;stroke-width:1.45978999;stroke-linecap:butt;stroke-linejoin:miter;stroke-miterlimit:4;stroke-dasharray:none;stroke-dashoffset:0;stroke-opacity:1"
           d="m 187.54109,51.947865 c 0.10664,0.260636 0.22678,0.50839 0.50839,0.50839 l 0.38322,0 0,0.12295 c 0,0.28161 0.22678,0.50838 0.50839,0.50838 0.28161,0 0.50839,-0.22677 0.50839,-0.50838 0,0.28161 0.22677,0.50838 0.50838,0.50838 0.28161,0 0.50839,-0.22677 0.50839,-0.50838 0,0.28161 0.22647,0.50838 0.50808,0.50838 0.28161,0 0.50838,-0.22677 0.50838,-0.50838 0,0.28161 0.22678,0.50838 0.50839,0.50838 0.28161,0 0.50839,-0.22677 0.50839,-0.50838 0,0.28161 0.22677,0.50838 0.50838,0.50838 0.28161,0 0.50839,-0.22677 0.50839,-0.50838 0,0.28161 0.22677,0.50838 0.50839,0.50838 0.28161,0 0.50838,-0.22677 0.50838,-0.50838 0,0.28161 0.22647,0.50838 0.50808,0.50838 0.28161,0 0.50839,-0.22677 0.50839,-0.50838 0,0.28161 0.22677,0.50838 0.50838,0.50838 0.28161,0 0.50839,-0.22677 0.50839,-0.50838 l 0,-0.12295 2.04319,0 c 0.28161,0 0.50839,-0.22678 0.50839,-0.50839 l 0,-11.95384 c 0,-0.28161 -0.22678,-0.50839 -0.50839,-0.50839 l -2.57236,0 0,-0.12263 c 0,-0.28161 -0.22678,-0.50839 -0.50839,-0.50839 -0.28161,0 -0.50838,0.22678 -0.50838,0.50839 0,-0.28161 -0.22678,-0.50839 -0.50839,-0.50839 -0.28161,0 -0.50808,0.22678 -0.50808,0.50839 0,-0.28161 -0.22677,-0.50839 -0.50838,-0.50839 -0.28162,0 -0.50839,0.22678 -0.50839,0.50839 0,-0.28161 -0.22678,-0.50839 -0.50839,-0.50839 -0.28161,0 -0.50838,0.22678 -0.50838,0.50839 0,-0.28161 -0.22678,-0.50839 -0.50839,-0.50839 -0.28161,0 -0.50839,0.22678 -0.50839,0.50839 0,-0.28161 -0.22677,-0.50839 -0.50838,-0.50839 -0.28161,0 -0.50808,0.22678 -0.50808,0.50839 0,-0.28161 -0.22678,-0.50839 -0.50839,-0.50839 -0.28161,0 -0.50838,0.22678 -0.50838,0.50839 0,-0.28161 -0.22678,-0.50839 -0.50839,-0.50839 -0.28161,0 -0.50839,0.22678 -0.50839,0.50839 l 0,0.12263 -0.38322,0 c -0.28161,0 -0.47276,0.229053 -0.50839,0.50839 l -1.03653,8.127292 z"
           sodipodi:nodetypes="sscsscscscscscscscsscsssscsscscscscscscscsscsscs"
           inkscape:connector-curvature="0" />
        <path
           id="rect6603"
           style="opacity:1;fill:#8a2626;fill-opacity:1;stroke:none;stroke-width:1.36379004;stroke-linecap:butt;stroke-linejoin:miter;stroke-miterlimit:4;stroke-dasharray:none;stroke-dashoffset:0;stroke-opacity:1"
           d="m 185.95359,47.785845 c -0.0248,0.244555 0.22678,0.44376 0.50839,0.44376 l 1.44155,0 0,0.10732 c 0,0.24581 0.22678,0.44376 0.50839,0.44376 0.28161,0 0.50839,-0.19795 0.50839,-0.44376 0,0.24581 0.22677,0.44376 0.50838,0.44376 0.28161,0 0.50839,-0.19795 0.50839,-0.44376 0,0.24581 0.22647,0.44376 0.50808,0.44376 0.28161,0 0.50838,-0.19795 0.50838,-0.44376 0,0.24581 0.22678,0.44376 0.50839,0.44376 0.28161,0 0.50839,-0.19795 0.50839,-0.44376 0,0.24581 0.22677,0.44376 0.50838,0.44376 0.28161,-10e-6 0.50839,-0.19795 0.50839,-0.44376 0,0.24581 0.22677,0.44376 0.50839,0.44376 0.28161,-10e-6 0.50838,-0.19795 0.50838,-0.44376 0,0.24581 0.22647,0.44376 0.50808,0.44376 0.28161,-10e-6 0.50839,-0.19795 0.50839,-0.44376 0,0.24581 0.22677,0.44376 0.50838,0.44376 0.28161,-10e-6 0.50839,-0.19795 0.50839,-0.44376 l 0,-0.10732 2.57236,0 c 0.28161,0 0.50839,-0.19795 0.50839,-0.44376 l 0,-10.43425 c 0,-0.24581 -0.22678,-0.44375 -0.50839,-0.44375 l -2.57236,0 0,-0.10705 c 0,-0.24582 -0.22678,-0.44376 -0.50839,-0.44376 -0.28161,0 -0.50838,0.19794 -0.50838,0.44376 0,-0.24582 -0.22678,-0.44376 -0.50839,-0.44376 -0.28161,0 -0.50808,0.19794 -0.50808,0.44376 0,-0.24582 -0.22677,-0.44376 -0.50838,-0.44376 -0.28162,0 -0.50839,0.19794 -0.50839,0.44376 0,-0.24582 -0.22678,-0.44376 -0.50839,-0.44376 -0.28161,0 -0.50838,0.19794 -0.50838,0.44376 0,-0.24582 -0.22678,-0.44376 -0.50839,-0.44376 -0.28161,0 -0.50839,0.19794 -0.50839,0.44376 0,-0.24582 -0.22677,-0.44376 -0.50838,-0.44376 -0.28161,0 -0.50808,0.19794 -0.50808,0.44376 0,-0.24582 -0.22678,-0.44376 -0.50839,-0.44376 -0.28161,0 -0.50838,0.19794 -0.50838,0.44376 0,-0.24582 -0.22678,-0.44376 -0.50839,-0.44376 -0.28161,0 -0.50839,0.19794 -0.50839,0.44376 l 0,0.10705 -0.38322,0 c -0.28161,0 -0.48358,0.199205 -0.50839,0.44375 z"
           sodipodi:nodetypes="sscsscscscscscscscsscsssscsscscscscscscscsscsss"
           inkscape:connector-curvature="0" />
      </g>
      <path
         id="rect6373"
         style="opacity:1;fill:#e75e57;fill-opacity:1;stroke:#7c45ad;stroke-width:1.45973003;stroke-linecap:butt;stroke-linejoin:miter;stroke-miterlimit:4;stroke-dasharray:none;stroke-dashoffset:0;stroke-opacity:1"
         d="m 281.75857,62.923409 c -1.2366,0.49123 -2.40172,1.07943 -2.40172,2.42032 l -0.005,48.121261 c 0,1.69729 0.098,15.41162 1.04282,18.95564 1.02985,3.21505 3.77357,10.07481 7.39806,10.07481 3.79445,0 5.28385,-3.67479 6.33974,-10.07481 1.59309,-9.65614 2.4249,-9.38137 4.21806,-18.95564 l -0.005,-48.121261 c 0,-1.34089 -1.07671,-2.2986 -2.40172,-2.42032 l -11.52104,-1.05833 z"
         sodipodi:nodetypes="scccssccscs"
         inkscape:connector-curvature="0" />
      <rect
         style="opacity:1;fill:#ea716b;fill-opacity:1;stroke:#7c45ad;stroke-width:0.758811;stroke-linecap:butt;stroke-linejoin:miter;stroke-miterlimit:4;stroke-dasharray:none;stroke-dashoffset:0;stroke-opacity:1"
         id="rect6431"
         width="7.8865275"
         height="23.724537"
         x="289.83206"
         y="47.578182"
         ry="2.5698025"
         transform="matrix(0.99575967,0.09199279,0,1,0,0)" />
      <rect
         style="opacity:1;fill:#8a2626;fill-opacity:1;stroke:none;stroke-width:0.71032602;stroke-linecap:butt;stroke-linejoin:miter;stroke-miterlimit:4;stroke-dasharray:none;stroke-dashoffset:0;stroke-opacity:1"
         id="rect6495"
         width="5.0298209"
         height="10.873934"
         x="291.26041"
         y="54.003475"
         ry="1.1778466"
         transform="matrix(0.99575967,0.09199279,0,1,0,0)" />
      <g
         id="g1310"
         transform="matrix(-0.09336641,0.99563182,-0.78010558,-0.07315521,348.28018,-129.74464)">
        <ellipse
           style="opacity:1;fill:#7c45ad;fill-opacity:1;stroke:none;stroke-width:1.1207;stroke-linecap:butt;stroke-linejoin:miter;stroke-miterlimit:4;stroke-dasharray:none;stroke-dashoffset:0;stroke-opacity:1"
           id="path6556"
           cx="-112.46934"
           cy="244.97849"
           rx="0.80218536"
           ry="1.6151222"
           transform="matrix(-0.26068716,-0.96542333,0.9664214,-0.25696241,0,0)" />
        <path
           id="path6562"
           style="opacity:1;fill:#f2adaa;fill-opacity:1;stroke:none;stroke-width:1.50483;stroke-linecap:butt;stroke-linejoin:miter;stroke-miterlimit:4;stroke-dasharray:none;stroke-dashoffset:0;stroke-opacity:1"
           d="m 264.49689,45.941515 a 0.80217751,1.6151263 75.18245 0 0 0.014,0.10366 0.80217751,1.6151263 75.18245 0 0 0.735,0.44743 0.77989472,1.1960594 80.44524 0 0 0.26434,-0.0255 0.77989472,1.1960594 80.44524 0 0 1.04622,-0.96923 0.77989472,1.1960594 80.44524 0 0 -0.87538,-0.58816 0.80217751,1.6151263 75.18245 0 0 -1.18422,1.03181 z"
           inkscape:connector-curvature="0" />
      </g>
      <g
         id="g1306"
         transform="matrix(-0.11321511,0.9935705,-0.65508935,-0.07464595,348.11121,-129.56419)">
        <ellipse
           style="opacity:1;fill:#7c45ad;fill-opacity:1;stroke:none;stroke-width:1.1207;stroke-linecap:butt;stroke-linejoin:miter;stroke-miterlimit:4;stroke-dasharray:none;stroke-dashoffset:0;stroke-opacity:1"
           id="ellipse6560"
           cx="-30.728157"
           cy="267.02774"
           rx="0.80218536"
           ry="1.6151222"
           transform="matrix(-0.26068716,0.96542333,0.9664214,0.25696241,0,0)" />
        <path
           id="path6569"
           style="opacity:1;fill:#f2adaa;fill-opacity:1;stroke:none;stroke-width:1.50483;stroke-linecap:butt;stroke-linejoin:miter;stroke-miterlimit:4;stroke-dasharray:none;stroke-dashoffset:0;stroke-opacity:1"
           d="m 264.49689,38.630145 a 1.6151263,0.80217751 14.81755 0 1 0.014,-0.10366 1.6151263,0.80217751 14.81755 0 1 0.735,-0.44743 1.1960594,0.77989472 9.5547601 0 1 0.26434,0.0255 1.1960594,0.77989472 9.5547601 0 1 1.04622,0.96924 1.1960594,0.77989472 9.5547601 0 1 -0.87538,0.58815 1.6151263,0.80217751 14.81755 0 1 -1.18422,-1.0318 z"
           inkscape:connector-curvature="0" />
      </g>
      <path
         style="opacity:1;fill:none;fill-opacity:1;stroke:#7c45ad;stroke-width:0.61154199;stroke-linecap:butt;stroke-linejoin:miter;stroke-miterlimit:4;stroke-dasharray:none;stroke-dashoffset:0;stroke-opacity:1"
         d="m 284.2869,61.882729 0,47.882761 3.6177,1.42924 c 2.22632,0.87956 5.06296,1.00531 7.2354,0 l 3.08854,-1.42924"
         id="path6571"
         sodipodi:nodetypes="ccssc"
         inkscape:connector-curvature="0" />
      <path
         style="opacity:1;fill:none;fill-opacity:1;stroke:#7c45ad;stroke-width:0.557809;stroke-linecap:butt;stroke-linejoin:miter;stroke-miterlimit:4;stroke-dasharray:none;stroke-dashoffset:0;stroke-opacity:1"
         d="m 285.33315,61.960309 0,46.645571 3.09457,1.39016 c 1.90439,0.85549 4.28476,0.85549 6.18915,0 l 3.09457,-1.39016"
         id="path6573"
         sodipodi:nodetypes="ccssc"
         inkscape:connector-curvature="0" />
      <path
         style="opacity:1;fill:none;fill-opacity:1;stroke:#7c45ad;stroke-width:0.61154199;stroke-linecap:butt;stroke-linejoin:miter;stroke-miterlimit:4;stroke-dasharray:none;stroke-dashoffset:0;stroke-opacity:1"
         d="m 284.2869,-12.071531 0,61.11193 3.6177,1.42924 c 2.22632,0.87955 5.00908,0.87955 7.2354,0 l 3.61771,-1.42924"
         id="path6591"
         sodipodi:nodetypes="ccssc"
         inkscape:connector-curvature="0" />
      <path
         style="opacity:1;fill:none;fill-opacity:1;stroke:#7c45ad;stroke-width:0.557809;stroke-linecap:butt;stroke-linejoin:miter;stroke-miterlimit:4;stroke-dasharray:none;stroke-dashoffset:0;stroke-opacity:1"
         d="m 285.33315,-11.993951 0,59.87473 3.09457,1.39016 c 1.90439,0.85549 4.28476,0.85549 6.18915,0 l 3.09457,-1.39016"
         id="path6593"
         sodipodi:nodetypes="ccssc"
         inkscape:connector-curvature="0" />
      <rect
         style="opacity:1;fill:#ea716b;fill-opacity:1;stroke:#7c45ad;stroke-width:0.758811;stroke-linecap:butt;stroke-linejoin:miter;stroke-miterlimit:4;stroke-dasharray:none;stroke-dashoffset:0;stroke-opacity:1"
         id="rect6599"
         width="7.8865275"
         height="13.897257"
         x="289.83206"
         y="-27.765675"
         ry="1.5053278"
         transform="matrix(0.99575967,0.09199279,0,1,0,0)" />
      <rect
         style="opacity:1;fill:#8a2626;fill-opacity:1;stroke:none;stroke-width:0.512366;stroke-linecap:butt;stroke-linejoin:miter;stroke-miterlimit:4;stroke-dasharray:none;stroke-dashoffset:0;stroke-opacity:1"
         id="rect6601"
         width="3.6280639"
         height="7.8434844"
         x="291.96127"
         y="-24.738789"
         ry="0.84959328"
         transform="matrix(0.99575967,0.09199279,0,1,0,0)" />
      <rect
         style="opacity:1;fill:#7c45ad;fill-opacity:1;stroke:none;stroke-width:0.41379699;stroke-linecap:butt;stroke-linejoin:miter;stroke-miterlimit:4;stroke-dasharray:none;stroke-dashoffset:0;stroke-opacity:1"
         id="rect6630"
         width="1.7075696"
         height="10.869802"
         x="316.582"
         y="148.0529"
         ry="1.177399"
         transform="matrix(0.88992055,-0.45611557,0,1,0,0)" />
      <rect
         style="opacity:1;fill:#7c45ad;fill-opacity:1;stroke:none;stroke-width:0.41379699;stroke-linecap:butt;stroke-linejoin:miter;stroke-miterlimit:4;stroke-dasharray:none;stroke-dashoffset:0;stroke-opacity:1"
         id="rect6632"
         width="1.7075696"
         height="10.869802"
         x="316.582"
         y="174.16107"
         ry="1.177399"
         transform="matrix(0.88992055,-0.45611557,0,1,0,0)" />
      <rect
         style="opacity:1;fill:#7c45ad;fill-opacity:1;stroke:none;stroke-width:0.41379699;stroke-linecap:butt;stroke-linejoin:miter;stroke-miterlimit:4;stroke-dasharray:none;stroke-dashoffset:0;stroke-opacity:1"
         id="rect1315"
         width="1.7075696"
         height="10.869802"
         x="316.582"
         y="161.10698"
         ry="1.177399"
         transform="matrix(0.88992055,-0.45611557,0,1,0,0)" />
      <rect
         style="opacity:1;fill:#7c45ad;fill-opacity:1;stroke:none;stroke-width:0.41379699;stroke-linecap:butt;stroke-linejoin:miter;stroke-miterlimit:4;stroke-dasharray:none;stroke-dashoffset:0;stroke-opacity:1"
         id="rect1317"
         width="1.7075696"
         height="10.869802"
         x="316.582"
         y="134.99881"
         ry="1.177399"
         transform="matrix(0.88992055,-0.45611557,0,1,0,0)" />
      <rect
         style="opacity:1;fill:#7c45ad;fill-opacity:1;stroke:none;stroke-width:0.41379699;stroke-linecap:butt;stroke-linejoin:miter;stroke-miterlimit:4;stroke-dasharray:none;stroke-dashoffset:0;stroke-opacity:1"
         id="rect1327"
         width="1.7075696"
         height="10.869802"
         x="316.582"
         y="209.90787"
         ry="1.177399"
         transform="matrix(0.88992055,-0.45611557,0,1,0,0)" />
      <rect
         style="opacity:1;fill:#7c45ad;fill-opacity:1;stroke:none;stroke-width:0.41379699;stroke-linecap:butt;stroke-linejoin:miter;stroke-miterlimit:4;stroke-dasharray:none;stroke-dashoffset:0;stroke-opacity:1"
         id="rect1329"
         width="1.7075696"
         height="10.869802"
         x="316.582"
         y="236.01604"
         ry="1.177399"
         transform="matrix(0.88992055,-0.45611557,0,1,0,0)" />
      <rect
         style="opacity:1;fill:#7c45ad;fill-opacity:1;stroke:none;stroke-width:0.41379699;stroke-linecap:butt;stroke-linejoin:miter;stroke-miterlimit:4;stroke-dasharray:none;stroke-dashoffset:0;stroke-opacity:1"
         id="rect1333"
         width="1.7075696"
         height="10.869802"
         x="316.582"
         y="222.96194"
         ry="1.177399"
         transform="matrix(0.88992055,-0.45611557,0,1,0,0)" />
      <path
         id="path1337"
         style="opacity:1;fill:#7c45ad;fill-opacity:1;stroke:none;stroke-width:1.45973003;stroke-linecap:butt;stroke-linejoin:miter;stroke-miterlimit:4;stroke-dasharray:none;stroke-dashoffset:0;stroke-opacity:1"
         d="m 298.05798,114.38594 c 0.24312,-0.94874 -0.0506,-1.95659 -0.18035,-2.92386 -0.43318,0.29369 -0.914,0.65019 -1.9513,1.28159 -2.17233,1.32223 -6.04378,0.92951 -7.70703,0.0821 -1.0747,-0.54747 -2.18958,-0.99226 -3.30005,-1.48362 -0.76258,-0.33742 -1.12975,1.31998 -1.0201,2.25465 l 1.5844,11.27477 c 0.11568,0.98607 0.30662,1.85507 0.72347,2.33111 0.69268,1.0642 1.874,1.76321 3.221,1.76321 l 3.3724,0 c 1.40495,-0.22082 1.80749,-1.19401 2.23198,-2.26568 1.23805,-3.639 1.90894,-7.95671 3.02558,-12.31432 z"
         sodipodi:nodetypes="scssscccsccs"
         inkscape:connector-curvature="0" />
      <rect
         style="opacity:1;fill:#ea716b;fill-opacity:1;stroke:#7c45ad;stroke-width:0.758811;stroke-linecap:butt;stroke-linejoin:miter;stroke-miterlimit:4;stroke-dasharray:none;stroke-dashoffset:0;stroke-opacity:1"
         id="rect1344"
         width="7.8865275"
         height="13.897257"
         x="289.83206"
         y="-2.948566"
         ry="1.5053278"
         transform="matrix(0.99575967,0.09199279,0,1,0,0)" />
      <rect
         style="opacity:1;fill:#8a2626;fill-opacity:1;stroke:none;stroke-width:0.512366;stroke-linecap:butt;stroke-linejoin:miter;stroke-miterlimit:4;stroke-dasharray:none;stroke-dashoffset:0;stroke-opacity:1"
         id="rect1346"
         width="3.6280639"
         height="7.8434844"
         x="291.96127"
         y="0.078319959"
         ry="0.84959328"
         transform="matrix(0.99575967,0.09199279,0,1,0,0)" />
      <path
         style="fill:#9c6dc5;fill-opacity:1;stroke:none;stroke-width:0.79374999;stroke-linecap:round;stroke-linejoin:round;stroke-miterlimit:4;stroke-dasharray:none;stroke-opacity:1"
         d="m 317.67305,67.788014 23.46264,5.602134 -0.33446,1.094277 -24.67295,-3.592108 z"
         id="path1348"
         clip-path="url(#clipPath1364)"
         transform="matrix(0,1,-1,0,364.76812,-207.75978)"
         inkscape:connector-curvature="0" />
      <path
         style="fill:#9c6dc5;fill-opacity:1;stroke:none;stroke-width:0.79374999;stroke-linecap:round;stroke-linejoin:round;stroke-miterlimit:4;stroke-dasharray:none;stroke-opacity:1"
         d="m 337.14834,76.507101 -24.79993,-0.617516 0.83802,2.316774 23.55355,-0.558647 z"
         id="path1350"
         clip-path="url(#clipPath1360)"
         transform="matrix(0,1,-1,0,364.76812,-207.75978)"
         inkscape:connector-curvature="0" />
      <rect
         style="fill:#7c45ad;fill-opacity:1;stroke:none;stroke-width:0.85288203;stroke-linecap:round;stroke-linejoin:round;stroke-miterlimit:4;stroke-dasharray:none;stroke-opacity:1"
         id="rect1370"
         width="4.4400902"
         height="4.9231949"
         x="205.69707"
         y="-327.07263"
         ry="0.79217952"
         transform="matrix(0,1,-0.86614266,0.49979686,0,0)" />
      <rect
         style="fill:#7c45ad;fill-opacity:1;stroke:none;stroke-width:0.85288203;stroke-linecap:round;stroke-linejoin:round;stroke-miterlimit:4;stroke-dasharray:none;stroke-opacity:1"
         id="rect1372"
         width="4.4400902"
         height="4.9231949"
         x="266.6662"
         y="-327.07263"
         ry="0.79217952"
         transform="matrix(0,1,-0.86614266,0.49979686,0,0)" />
      <path
         id="path2455-3"
         style="color:#000000;font-style:normal;font-variant:normal;font-weight:normal;font-stretch:normal;font-size:medium;line-height:normal;font-family:sans-serif;text-indent:0;text-align:start;text-decoration:none;text-decoration-line:none;text-decoration-style:solid;text-decoration-color:#000000;letter-spacing:normal;word-spacing:normal;text-transform:none;direction:ltr;writing-mode:lr-tb;baseline-shift:baseline;text-anchor:start;white-space:normal;clip-rule:nonzero;display:inline;overflow:visible;visibility:visible;isolation:auto;mix-blend-mode:normal;color-interpolation:sRGB;color-interpolation-filters:linearRGB;solid-color:#000000;solid-opacity:1;fill:#fff2ab;fill-opacity:1;fill-rule:nonzero;stroke:none;stroke-width:0.178389;stroke-linecap:round;stroke-linejoin:round;stroke-miterlimit:4;stroke-dasharray:none;stroke-dashoffset:0;stroke-opacity:1;color-rendering:auto;image-rendering:auto;shape-rendering:auto;text-rendering:auto;enable-background:accumulate"
         d="m 281.11995,96.560709 a 0.05684014,0.13996507 4.3558995 0 0 -0.0576,-0.11628 0.05684014,0.13996507 4.3558995 0 0 -0.058,0.15953 l 0,1.68073 a 0.05684014,0.13996507 4.3558995 0 0 0.058,0.11626 0.05684014,0.13996507 4.3558995 0 0 0.0576,-0.15942 z m -0.0196,3.23112 c -10e-4,-0.11939 -0.0233,-0.2164 -0.0544,-0.2917 -0.0322,-0.0757 -0.0739,-0.126 -0.11286,-0.15347 -0.0196,-0.0133 -0.039,-0.0205 -0.0575,-0.0192 -0.038,-9.7e-4 -0.0749,0.0146 -0.1109,0.0453 -0.036,0.0307 -0.0691,0.061 -0.0983,0.0895 -0.0146,0.0135 -0.0291,0.0241 -0.0427,0.0353 -0.0282,0.017 -0.0555,0.026 -0.0789,0.01 -0.0457,-0.0324 -0.0788,-0.0831 -0.0788,-0.1576 0,-0.0535 0.0157,-0.0698 0.039,-0.0703 0.0225,-0.003 0.0525,0.0158 0.0827,0.0371 l -0.01,-0.25353 c -0.0535,-0.0373 -0.10494,-0.0617 -0.14386,-0.038 -0.0389,0.0239 -0.0643,0.0973 -0.0643,0.25785 0,0.13735 0.0216,0.23835 0.0546,0.31496 0.0331,0.0762 0.0779,0.12656 0.12554,0.15994 0.0389,0.0274 0.0759,0.0226 0.11189,0.004 0.036,-0.0201 0.0728,-0.051 0.10879,-0.084 0.0302,-0.0278 0.0585,-0.0573 0.0857,-0.0753 0.0272,-0.0181 0.0525,-0.0248 0.0768,-0.009 0.0418,0.0288 0.0699,0.0699 0.0709,0.13553 0,0.0396 -0.0137,0.0552 -0.0331,0.0586 -0.0205,0.002 -0.0466,-0.0141 -0.07,-0.0311 l 0.01,0.253141 c 0.0399,0.0279 0.0876,0.0484 0.1265,0.0259 0.038,-0.0221 0.0642,-0.0928 0.0632,-0.244581 z m 0,1.972501 c 0,-0.15827 -0.0332,-0.25807 -0.076,-0.32987 -0.0438,-0.0727 -0.0982,-0.11307 -0.13804,-0.14094 l 0,0.24672 c 0.0477,0.0333 0.0778,0.0586 0.0973,0.085 0.0182,0.022 0.0244,0.045 0.0244,0.0752 0,0.0396 -0.0128,0.0525 -0.0312,0.0482 -0.0184,-0.005 -0.0407,-0.0203 -0.0612,-0.034 -0.0225,-0.0156 -0.0419,-0.0288 -0.0575,-0.0405 -0.0155,-0.0113 -0.0281,-0.024 -0.0378,-0.0434 -0.0205,-0.0354 -0.0296,-0.0904 -0.0322,-0.19705 l -0.0875,-0.0613 -1.6e-4,0.0214 c -10e-4,0.053 -0.006,0.0919 -0.0126,0.11476 -0.0146,0.0427 -0.0389,0.0428 -0.0739,0.0183 -0.0184,-0.0157 -0.0388,-0.0291 -0.0612,-0.0452 -0.0205,-0.0137 -0.043,-0.0293 -0.0604,-0.0505 -0.0175,-0.0216 -0.03,-0.0515 -0.03,-0.0909 0,-0.0302 0.006,-0.0464 0.0252,-0.0474 0.0184,-0.002 0.0487,0.0123 0.0963,0.046 l 0,-0.24669 c -0.0399,-0.0279 -0.0942,-0.0615 -0.13705,-0.0473 -0.0437,0.0136 -0.077,0.072 -0.077,0.23034 0,0.0535 0.004,0.10052 0.0126,0.14403 0.0166,0.0837 0.0449,0.14966 0.076,0.19935 0.0311,0.0467 0.0612,0.0829 0.0817,0.0994 0.0108,0.009 0.0178,0.0134 0.0205,0.0167 0.0827,0.0578 0.15663,0.0861 0.19649,-0.007 l 10e-4,0.003 c 0.0321,0.0994 0.0827,0.17913 0.18869,0.25333 0.009,0.005 0.0477,0.0306 0.0836,0.0143 0.036,-0.0173 0.0701,-0.0747 0.0701,-0.23284 z m -0.008,-2.989861 -0.71499,-0.50055 0,0.2514 0.3113,0.21813 0,0.23273 0.10798,0.0755 0,-0.23272 0.18772,0.13135 0,0.34657 0.10798,0.076 z m 0,1.498901 -0.71499,-0.500531 0,0.251371 0.3113,0.21813 0,0.23272 0.10798,0.0755 0,-0.23272 0.18772,0.13135 0,0.34655 0.10798,0.0755 z m 0,1.99233 -0.37641,-0.26346 0,0.21174 c 0.008,0.005 0.0214,0.024 0.033,0.051 0.0106,0.026 0.0196,0.0553 0.0196,0.0833 0,0.0535 -0.0223,0.0636 -0.0524,0.0426 l -0.15978,-0.11072 c -0.036,-0.025 -0.0614,-0.0495 -0.075,-0.0715 -0.0133,-0.0209 -0.0202,-0.0469 -0.0202,-0.0726 0,-0.0303 0.007,-0.043 0.0214,-0.0457 0.0135,-0.004 0.0389,0.0104 0.0748,0.0354 l 0.0282,0.0204 0,-0.25137 c -0.0477,-0.0332 -0.10108,-0.0661 -0.14289,-0.0512 -0.0428,0.0146 -0.0731,0.0726 -0.0731,0.22845 0,0.15132 0.0303,0.25596 0.0692,0.3274 0.0379,0.0713 0.0837,0.10752 0.11773,0.13143 l 0.15947,0.11157 c 0.0117,0.008 0.0486,0.03 0.0827,0.0162 0.034,-0.0135 0.0651,-0.0614 0.0651,-0.19171 0.001,-0.0158 -10e-6,-0.0347 -0.002,-0.0537 -0.005,-0.0382 -0.0124,-0.0737 -0.0214,-0.10791 l 0.14874,0.1043 0,0.39085 0.10409,0.0729 z m -0.26972,-5.169771 a 0.05684014,0.13996507 4.3558995 0 0 -0.0578,-0.11706 0.05684014,0.13996507 4.3558995 0 0 -0.0566,0.15981 l 0,1.01132 a 0.05684014,0.13996507 4.3558995 0 0 0.0566,0.11682 0.05684014,0.13996507 4.3558995 0 0 0.0578,-0.15948 z m -0.1369,3.584191 -0.0924,-0.0645 0,0.33724 0.0924,0.0645 z m -0.19568,-3.072151 a 0.05684014,0.13996507 4.3558995 0 0 -0.0577,-0.11719 0.05684014,0.13996507 4.3558995 0 0 -0.0576,0.16018 l 0,0.41184 a 0.05684014,0.13996507 4.3558995 0 0 0.0576,0.11718 0.05684014,0.13996507 4.3558995 0 0 0.0577,-0.1602 z"
         inkscape:connector-curvature="0" />
      <path
         id="path1389"
         style="color:#000000;font-style:normal;font-variant:normal;font-weight:normal;font-stretch:normal;font-size:medium;line-height:normal;font-family:sans-serif;text-indent:0;text-align:start;text-decoration:none;text-decoration-line:none;text-decoration-style:solid;text-decoration-color:#000000;letter-spacing:normal;word-spacing:normal;text-transform:none;direction:ltr;writing-mode:lr-tb;baseline-shift:baseline;text-anchor:start;white-space:normal;clip-rule:nonzero;display:inline;overflow:visible;visibility:visible;isolation:auto;mix-blend-mode:normal;color-interpolation:sRGB;color-interpolation-filters:linearRGB;solid-color:#000000;solid-opacity:1;fill:#fff2ab;fill-opacity:1;fill-rule:nonzero;stroke:none;stroke-width:0.178389;stroke-linecap:round;stroke-linejoin:round;stroke-miterlimit:4;stroke-dasharray:none;stroke-dashoffset:0;stroke-opacity:1;color-rendering:auto;image-rendering:auto;shape-rendering:auto;text-rendering:auto;enable-background:accumulate"
         d="m 281.11995,33.714669 a 0.05684014,0.13996507 4.3558995 0 0 -0.0576,-0.11628 0.05684014,0.13996507 4.3558995 0 0 -0.058,0.15953 l 0,1.68073 a 0.05684014,0.13996507 4.3558995 0 0 0.058,0.11626 0.05684014,0.13996507 4.3558995 0 0 0.0576,-0.15942 z m -0.0196,3.23112 c -10e-4,-0.11939 -0.0233,-0.2164 -0.0544,-0.2917 -0.0322,-0.0757 -0.0739,-0.126 -0.11286,-0.15347 -0.0196,-0.0133 -0.039,-0.0205 -0.0575,-0.0192 -0.038,-9.7e-4 -0.0749,0.0146 -0.1109,0.0453 -0.036,0.0307 -0.0691,0.061 -0.0983,0.0895 -0.0146,0.0135 -0.0291,0.0241 -0.0427,0.0353 -0.0282,0.017 -0.0555,0.026 -0.0789,0.01 -0.0457,-0.0324 -0.0788,-0.0831 -0.0788,-0.1576 0,-0.0535 0.0157,-0.0698 0.039,-0.0703 0.0225,-0.003 0.0525,0.0158 0.0827,0.0371 l -0.01,-0.25353 c -0.0535,-0.0373 -0.10494,-0.0617 -0.14386,-0.038 -0.0389,0.0239 -0.0643,0.0973 -0.0643,0.25785 0,0.13735 0.0216,0.23835 0.0546,0.31496 0.0331,0.0762 0.0779,0.12656 0.12554,0.15994 0.0389,0.0274 0.0759,0.0226 0.11189,0.004 0.036,-0.0201 0.0728,-0.051 0.10879,-0.084 0.0302,-0.0278 0.0585,-0.0573 0.0857,-0.0753 0.0272,-0.0181 0.0525,-0.0248 0.0768,-0.009 0.0418,0.0288 0.0699,0.0699 0.0709,0.13553 0,0.0396 -0.0137,0.0552 -0.0331,0.0586 -0.0205,0.002 -0.0466,-0.0141 -0.07,-0.0311 l 0.01,0.25314 c 0.0399,0.0279 0.0876,0.0484 0.1265,0.0259 0.038,-0.0221 0.0642,-0.0928 0.0632,-0.24458 z m 0,1.9725 c 0,-0.15827 -0.0332,-0.25807 -0.076,-0.32987 -0.0438,-0.0727 -0.0982,-0.11307 -0.13804,-0.14094 l 0,0.24672 c 0.0477,0.0333 0.0778,0.0586 0.0973,0.085 0.0182,0.022 0.0244,0.045 0.0244,0.0752 0,0.0396 -0.0128,0.0525 -0.0312,0.0482 -0.0184,-0.005 -0.0407,-0.0203 -0.0612,-0.034 -0.0225,-0.0156 -0.0419,-0.0288 -0.0575,-0.0405 -0.0155,-0.0113 -0.0281,-0.024 -0.0378,-0.0434 -0.0205,-0.0354 -0.0296,-0.0904 -0.0322,-0.19705 l -0.0875,-0.0613 -1.6e-4,0.0214 c -10e-4,0.053 -0.006,0.0919 -0.0126,0.11476 -0.0146,0.0427 -0.0389,0.0428 -0.0739,0.0183 -0.0184,-0.0157 -0.0388,-0.0291 -0.0612,-0.0452 -0.0205,-0.0137 -0.043,-0.0293 -0.0604,-0.0505 -0.0175,-0.0216 -0.03,-0.0515 -0.03,-0.0909 0,-0.0302 0.006,-0.0464 0.0252,-0.0474 0.0184,-0.002 0.0487,0.0123 0.0963,0.046 l 0,-0.24669 c -0.0399,-0.0279 -0.0942,-0.0615 -0.13705,-0.0473 -0.0437,0.0136 -0.077,0.072 -0.077,0.23034 0,0.0535 0.004,0.10052 0.0126,0.14403 0.0166,0.0837 0.0449,0.14966 0.076,0.19935 0.0311,0.0467 0.0612,0.0829 0.0817,0.0994 0.0108,0.009 0.0178,0.0134 0.0205,0.0167 0.0827,0.0578 0.15663,0.0861 0.19649,-0.007 l 10e-4,0.003 c 0.0321,0.0994 0.0827,0.17913 0.18869,0.25333 0.009,0.005 0.0477,0.0306 0.0836,0.0143 0.036,-0.0173 0.0701,-0.0747 0.0701,-0.23284 z m -0.008,-2.98986 -0.71499,-0.50055 0,0.2514 0.3113,0.21813 0,0.23273 0.10798,0.0755 0,-0.23272 0.18772,0.13135 0,0.34657 0.10798,0.076 z m 0,1.4989 -0.71499,-0.50053 0,0.25137 0.3113,0.21813 0,0.23272 0.10798,0.0755 0,-0.23272 0.18772,0.13135 0,0.34655 0.10798,0.0755 z m 0,1.99233 -0.37641,-0.26346 0,0.21174 c 0.008,0.005 0.0214,0.024 0.033,0.051 0.0106,0.026 0.0196,0.0553 0.0196,0.0833 0,0.0535 -0.0223,0.0636 -0.0524,0.0426 l -0.15978,-0.11072 c -0.036,-0.025 -0.0614,-0.0495 -0.075,-0.0715 -0.0133,-0.0209 -0.0202,-0.0469 -0.0202,-0.0726 0,-0.0303 0.007,-0.043 0.0214,-0.0457 0.0135,-0.004 0.0389,0.0104 0.0748,0.0354 l 0.0282,0.0204 0,-0.25137 c -0.0477,-0.0332 -0.10108,-0.0661 -0.14289,-0.0512 -0.0428,0.0146 -0.0731,0.0726 -0.0731,0.22845 0,0.15132 0.0303,0.25596 0.0692,0.3274 0.0379,0.0713 0.0837,0.10752 0.11773,0.13143 l 0.15947,0.11157 c 0.0117,0.008 0.0486,0.03 0.0827,0.0162 0.034,-0.0135 0.0651,-0.0614 0.0651,-0.19171 0.001,-0.0158 -10e-6,-0.0347 -0.002,-0.0537 -0.005,-0.0382 -0.0124,-0.0737 -0.0214,-0.10791 l 0.14874,0.1043 0,0.39085 0.10409,0.0729 z m -0.26972,-5.16977 a 0.05684014,0.13996507 4.3558995 0 0 -0.0578,-0.11706 0.05684014,0.13996507 4.3558995 0 0 -0.0566,0.15981 l 0,1.01132 a 0.05684014,0.13996507 4.3558995 0 0 0.0566,0.11682 0.05684014,0.13996507 4.3558995 0 0 0.0578,-0.15948 z m -0.1369,3.58419 -0.0924,-0.0645 0,0.33724 0.0924,0.0645 z m -0.19568,-3.07215 a 0.05684014,0.13996507 4.3558995 0 0 -0.0577,-0.11719 0.05684014,0.13996507 4.3558995 0 0 -0.0576,0.16018 l 0,0.41184 a 0.05684014,0.13996507 4.3558995 0 0 0.0576,0.11718 0.05684014,0.13996507 4.3558995 0 0 0.0577,-0.1602 z"
         inkscape:connector-curvature="0" />
    </g>
  </g>
</svg>
